<svg width="128" height="126" viewBox="0 0 128 126" fill="none" xmlns="http://www.w3.org/2000/svg">
<path d="M61.0291 120.14C27.3886 120.14 -0.00012207 93.1816 -0.00012207 60.0699C-0.00012207 26.9582 27.3886 0 61.0291 0C94.6695 0 122.058 26.9582 122.058 60.0699C122.058 93.1816 94.6695 120.14 61.0291 120.14ZM61.0291 8.79072C32.2709 8.79072 8.93098 31.8224 8.93098 60.0699C8.93098 88.3174 32.2709 111.349 61.0291 111.349C89.7872 111.349 113.127 88.3174 113.127 60.0699C113.127 31.8224 89.7872 8.79072 61.0291 8.79072Z" fill="#DDDDDD"/>
<path d="M123.549 126C122.418 126 121.287 125.59 120.394 124.711L108.486 112.99C106.759 111.29 106.759 108.477 108.486 106.778C110.212 105.078 113.07 105.078 114.797 106.778L126.705 118.499C128.432 120.198 128.432 123.011 126.705 124.711C125.812 125.59 124.681 126 123.549 126Z" fill="#DDDDDD"/>
</svg>
