<svg width="16" height="16" viewBox="0 0 16 16" fill="none" xmlns="http://www.w3.org/2000/svg">
<path fill-rule="evenodd" clip-rule="evenodd" d="M7.99062 13.55C7.575 13.55 7.15625 13.2844 7.15625 12.7812V11.4125C6.6 11.0969 6.25 10.5063 6.25 9.875C6.25 8.90938 7.03438 8.125 8 8.125C8.96562 8.125 9.75 8.90938 9.75 9.875C9.75 10.5094 9.4 11.0969 8.84375 11.4125V12.7812C8.84375 13.2812 8.40312 13.55 7.99062 13.55ZM13.0938 16H2.90625C2.15938 16 1.53125 15.3719 1.53125 14.625V7.0625C1.53125 6.30313 2.14688 5.6875 2.90625 5.6875H3.625V4.375C3.625 1.96531 5.60469 0 8 0C10.4028 0 12.375 1.97219 12.375 4.375V5.6875H13.0938C13.8531 5.6875 14.4688 6.30313 14.4688 7.0625V14.625C14.4688 15.3719 13.8406 16 13.0938 16ZM4.0625 5.6875H4.9375V4.375C4.9375 2.66875 6.3125 1.28125 8 1.28125C9.6875 1.28125 11.0625 2.66875 11.0625 4.375V5.6875H11.9375V4.375C11.9375 2.20312 10.1719 0.4375 8 0.4375C5.82812 0.4375 4.0625 2.20312 4.0625 4.375V5.6875ZM5.375 5.6875H10.625V4.375C10.625 2.90937 9.44687 1.71875 8 1.71875C6.55313 1.71875 5.375 2.90937 5.375 4.375V5.6875ZM2.90625 6.125C2.39062 6.125 1.96875 6.54688 1.96875 7.0625V14.625C1.96875 15.1344 2.39688 15.5625 2.90625 15.5625H13.0938C13.6031 15.5625 14.0312 15.1344 14.0312 14.625V7.0625C14.0312 6.54688 13.6094 6.125 13.0938 6.125H2.90625ZM8 8.5625C6.61781 8.5625 6.15688 10.4588 7.46875 11.0844C7.54688 11.1219 7.59375 11.1969 7.59375 11.2812V12.7812C7.59375 13.2381 8.40625 13.2088 8.40625 12.7812V11.2812C8.40625 11.1969 8.45625 11.1188 8.53125 11.0844C9.83 10.4791 9.39781 8.5625 8 8.5625Z" fill="#004BB1"/>
<path fill-rule="evenodd" clip-rule="evenodd" d="M8.84375 11.4125V12.7812C8.84375 13.2812 8.40312 13.55 7.99062 13.55C7.575 13.55 7.15625 13.2844 7.15625 12.7812V11.4125C6.6 11.0969 6.25 10.5063 6.25 9.875C6.25 8.90938 7.03438 8.125 8 8.125C8.96562 8.125 9.75 8.90938 9.75 9.875C9.75 10.5094 9.4 11.0969 8.84375 11.4125ZM2.90625 15.5625H13.0938C13.6031 15.5625 14.0312 15.1344 14.0312 14.625V7.0625C14.0312 6.54688 13.6094 6.125 13.0938 6.125H2.90625C2.39062 6.125 1.96875 6.54688 1.96875 7.0625V14.625C1.96875 15.1344 2.39688 15.5625 2.90625 15.5625Z" fill="#91D8E4"/>
<path fill-rule="evenodd" clip-rule="evenodd" d="M8.53125 11.0844C9.83 10.4791 9.39781 8.5625 8 8.5625C6.61781 8.5625 6.15688 10.4588 7.46875 11.0844C7.54688 11.1219 7.59375 11.1969 7.59375 11.2812V12.7812C7.59375 13.2381 8.40625 13.2088 8.40625 12.7812V11.2812C8.40625 11.1969 8.45625 11.1188 8.53125 11.0844Z" fill="white"/>
<path fill-rule="evenodd" clip-rule="evenodd" d="M11.0625 5.6875H11.9375V4.375C11.9375 2.20312 10.1719 0.4375 8 0.4375C5.82812 0.4375 4.0625 2.20312 4.0625 4.375V5.6875H4.9375V4.375C4.9375 2.66875 6.3125 1.28125 8 1.28125C9.6875 1.28125 11.0625 2.66875 11.0625 4.375V5.6875Z" fill="white"/>
</svg>
