<svg width="14" height="14" viewBox="0 0 14 14" fill="none" xmlns="http://www.w3.org/2000/svg">
<path fill-rule="evenodd" clip-rule="evenodd" d="M6.9918 11.8563C6.62812 11.8563 6.26172 11.6238 6.26172 11.1836V9.98594C5.775 9.70977 5.46875 9.19297 5.46875 8.64062C5.46875 7.7957 6.15508 7.10938 7 7.10938C7.84492 7.10938 8.53125 7.7957 8.53125 8.64062C8.53125 9.1957 8.225 9.70977 7.73828 9.98594V11.1836C7.73828 11.6211 7.35273 11.8563 6.9918 11.8563ZM11.457 14H2.54297C1.88945 14 1.33984 13.4504 1.33984 12.7969V6.17969C1.33984 5.51523 1.87852 4.97656 2.54297 4.97656H3.17188V3.82812C3.17188 1.71965 4.9041 0 7 0C9.10246 0 10.8281 1.72566 10.8281 3.82812V4.97656H11.457C12.1215 4.97656 12.6602 5.51523 12.6602 6.17969V12.7969C12.6602 13.4504 12.1105 14 11.457 14ZM3.55469 4.97656H4.32031V3.82812C4.32031 2.33516 5.52344 1.12109 7 1.12109C8.47656 1.12109 9.67969 2.33516 9.67969 3.82812V4.97656H10.4453V3.82812C10.4453 1.92773 8.90039 0.382812 7 0.382812C5.09961 0.382812 3.55469 1.92773 3.55469 3.82812V4.97656ZM4.70312 4.97656H9.29688V3.82812C9.29688 2.5457 8.26602 1.50391 7 1.50391C5.73398 1.50391 4.70312 2.5457 4.70312 3.82812V4.97656ZM2.54297 5.35938C2.0918 5.35938 1.72266 5.72852 1.72266 6.17969V12.7969C1.72266 13.2426 2.09727 13.6172 2.54297 13.6172H11.457C11.9027 13.6172 12.2773 13.2426 12.2773 12.7969V6.17969C12.2773 5.72852 11.9082 5.35938 11.457 5.35938H2.54297ZM7 7.49219C5.79059 7.49219 5.38727 9.15141 6.53516 9.69883C6.60352 9.73164 6.64453 9.79727 6.64453 9.87109V11.1836C6.64453 11.5834 7.35547 11.5577 7.35547 11.1836V9.87109C7.35547 9.79727 7.39922 9.72891 7.46484 9.69883C8.60125 9.16918 8.22309 7.49219 7 7.49219Z" fill="#004BB1"/>
<path fill-rule="evenodd" clip-rule="evenodd" d="M7.73828 9.98594V11.1836C7.73828 11.6211 7.35273 11.8563 6.9918 11.8563C6.62812 11.8563 6.26172 11.6238 6.26172 11.1836V9.98594C5.775 9.70977 5.46875 9.19297 5.46875 8.64062C5.46875 7.7957 6.15508 7.10938 7 7.10938C7.84492 7.10938 8.53125 7.7957 8.53125 8.64062C8.53125 9.1957 8.225 9.70977 7.73828 9.98594ZM2.54297 13.6172H11.457C11.9027 13.6172 12.2773 13.2426 12.2773 12.7969V6.17969C12.2773 5.72852 11.9082 5.35938 11.457 5.35938H2.54297C2.0918 5.35938 1.72266 5.72852 1.72266 6.17969V12.7969C1.72266 13.2426 2.09727 13.6172 2.54297 13.6172Z" fill="#91D8E4"/>
<path fill-rule="evenodd" clip-rule="evenodd" d="M7.46484 9.69883C8.60125 9.16918 8.22309 7.49219 7 7.49219C5.79059 7.49219 5.38727 9.15141 6.53516 9.69883C6.60352 9.73164 6.64453 9.79727 6.64453 9.87109V11.1836C6.64453 11.5834 7.35547 11.5577 7.35547 11.1836V9.87109C7.35547 9.79727 7.39922 9.72891 7.46484 9.69883Z" fill="white"/>
<path fill-rule="evenodd" clip-rule="evenodd" d="M9.67969 4.97656H10.4453V3.82812C10.4453 1.92773 8.90039 0.382812 7 0.382812C5.09961 0.382812 3.55469 1.92773 3.55469 3.82812V4.97656H4.32031V3.82812C4.32031 2.33516 5.52344 1.12109 7 1.12109C8.47656 1.12109 9.67969 2.33516 9.67969 3.82812V4.97656Z" fill="white"/>
</svg>
