<svg width="17" height="16" viewBox="0 0 17 16" fill="none" xmlns="http://www.w3.org/2000/svg">
<path fill-rule="evenodd" clip-rule="evenodd" d="M14.6875 16H2.28125C2.15625 16 2.0625 15.9062 2.0625 15.7812V0.21875C2.0625 0.09375 2.15625 0 2.28125 0H11.7188C11.8438 0 11.9062 0.03125 11.9688 0.125L14.7812 2.90625C14.875 2.9375 14.9375 3.03125 14.9375 3.125V15.7812C14.9375 15.9062 14.8125 16 14.6875 16ZM8.5 14.5938C5.46875 14.5938 3 12.125 3 9.09375C3 6.0625 5.46875 3.59375 8.5 3.59375C11.5312 3.59375 14 6.0625 14 9.09375C14 12.125 11.5312 14.5938 8.5 14.5938ZM8.5 4.0625C5.71875 4.0625 3.46875 6.3125 3.46875 9.09375C3.46875 11.875 5.71875 14.1562 8.5 14.1562C11.2812 14.1562 13.5312 11.875 13.5312 9.09375C13.5312 6.3125 11.2812 4.0625 8.5 4.0625ZM7.6875 11.5C7.46875 11.5 7.28125 11.4375 7.125 11.2812L5.5 9.6875C5 9.1875 5.375 8.3125 6.0625 8.3125C6.28125 8.3125 6.5 8.375 6.65625 8.53125L7.6875 9.5625L10.3438 6.90625C10.8125 6.40625 11.7188 6.75 11.7188 7.5C11.7188 7.71875 11.625 7.90625 11.4688 8.0625L8.25 11.2812C8.09375 11.4375 7.875 11.5 7.6875 11.5ZM6.0625 8.75C5.78125 8.75 5.59375 9.125 5.8125 9.375L7.4375 10.9375C7.5625 11.0938 7.78125 11.0938 7.90625 10.9375L11.125 7.75C11.4375 7.40625 10.9688 6.90625 10.6562 7.25L7.84375 10.0625C7.75 10.1562 7.59375 10.1562 7.53125 10.0625L6.34375 8.875C6.25 8.8125 6.1875 8.75 6.0625 8.75ZM8.5 13.6875C5.96875 13.6875 3.90625 11.625 3.90625 9.09375C3.90625 6.5625 5.96875 4.53125 8.5 4.53125C11.0312 4.53125 13.0625 6.5625 13.0625 9.09375C13.0625 11.625 11.0312 13.6875 8.5 13.6875ZM8.5 4.96875C6.21875 4.96875 4.375 6.8125 4.375 9.09375C4.375 11.375 6.21875 13.2188 8.5 13.2188C10.7812 13.2188 12.625 11.375 12.625 9.09375C12.5938 6.8125 10.75 4.96875 8.5 4.96875ZM11.5312 0.46875H2.53125V15.5625H14.4688V3.375H11.7812C11.6562 3.375 11.5312 3.28125 11.5312 3.125V0.46875ZM12 0.78125V2.90625H14.1562L12 0.78125Z" fill="#004BB1"/>
<path fill-rule="evenodd" clip-rule="evenodd" d="M7.6875 9.5625L10.3438 6.90625C10.8125 6.40625 11.7188 6.75 11.7188 7.5C11.7188 7.71875 11.625 7.90625 11.4688 8.0625L8.25 11.2812C8.09375 11.4375 7.875 11.5 7.6875 11.5C7.46875 11.5 7.28125 11.4375 7.125 11.2812L5.5 9.6875C5 9.1875 5.375 8.3125 6.0625 8.3125C6.28125 8.3125 6.5 8.375 6.65625 8.53125L7.6875 9.5625ZM8.5 13.2188C10.7812 13.2188 12.625 11.375 12.625 9.09375C12.5938 6.8125 10.75 4.96875 8.5 4.96875C6.21875 4.96875 4.375 6.8125 4.375 9.09375C4.375 11.375 6.21875 13.2188 8.5 13.2188Z" fill="#91D8E4"/>
<path fill-rule="evenodd" clip-rule="evenodd" d="M10.6563 7.25006L7.84376 10.0626C7.75001 10.1563 7.59376 10.1563 7.53126 10.0626L6.34376 8.87506C6.25001 8.81256 6.18751 8.75006 6.06251 8.75006C5.78126 8.75006 5.59376 9.12506 5.81251 9.37506L7.43751 10.9376C7.56251 11.0938 7.78126 11.0938 7.90626 10.9376L11.125 7.75006C11.4375 7.40631 10.9688 6.90631 10.6563 7.25006Z" fill="white"/>
<path fill-rule="evenodd" clip-rule="evenodd" d="M8.5 4.53125C11.0312 4.53125 13.0625 6.5625 13.0625 9.09375C13.0625 11.625 11.0312 13.6875 8.5 13.6875C5.96875 13.6875 3.90625 11.625 3.90625 9.09375C3.90625 6.5625 5.96875 4.53125 8.5 4.53125ZM8.5 14.1562C11.2812 14.1562 13.5312 11.875 13.5312 9.09375C13.5312 6.3125 11.2812 4.0625 8.5 4.0625C5.71875 4.0625 3.46875 6.3125 3.46875 9.09375C3.46875 11.875 5.71875 14.1562 8.5 14.1562Z" fill="white"/>
<path fill-rule="evenodd" clip-rule="evenodd" d="M8.5 3.59375C11.5312 3.59375 14 6.0625 14 9.09375C14 12.125 11.5312 14.5938 8.5 14.5938C5.46875 14.5938 3 12.125 3 9.09375C3 6.0625 5.46875 3.59375 8.5 3.59375ZM2.53125 15.5625H14.4688V3.375H11.7812C11.6562 3.375 11.5312 3.28125 11.5312 3.125V0.46875H2.53125V15.5625Z" fill="#91D8E4"/>
<path fill-rule="evenodd" clip-rule="evenodd" d="M12 2.90625H14.1562L12 0.78125V2.90625Z" fill="white"/>
</svg>
