<svg width="14" height="14" viewBox="0 0 14 14" fill="none" xmlns="http://www.w3.org/2000/svg">
<path fill-rule="evenodd" clip-rule="evenodd" d="M12.4141 14H1.55859C1.44922 14 1.36719 13.918 1.36719 13.8086V0.191406C1.36719 0.0820312 1.44922 0 1.55859 0H9.81641C9.92578 0 9.98047 0.0273438 10.0352 0.109375L12.4961 2.54297C12.5781 2.57031 12.6328 2.65234 12.6328 2.73438V13.8086C12.6328 13.918 12.5234 14 12.4141 14ZM7 12.7695C4.34766 12.7695 2.1875 10.6094 2.1875 7.95703C2.1875 5.30469 4.34766 3.14453 7 3.14453C9.65234 3.14453 11.8125 5.30469 11.8125 7.95703C11.8125 10.6094 9.65234 12.7695 7 12.7695ZM7 3.55469C4.56641 3.55469 2.59766 5.52344 2.59766 7.95703C2.59766 10.3906 4.56641 12.3867 7 12.3867C9.43359 12.3867 11.4023 10.3906 11.4023 7.95703C11.4023 5.52344 9.43359 3.55469 7 3.55469ZM6.28906 10.0625C6.09766 10.0625 5.93359 10.0078 5.79688 9.87109L4.375 8.47656C3.9375 8.03906 4.26562 7.27344 4.86719 7.27344C5.05859 7.27344 5.25 7.32812 5.38672 7.46484L6.28906 8.36719L8.61328 6.04297C9.02344 5.60547 9.81641 5.90625 9.81641 6.5625C9.81641 6.75391 9.73438 6.91797 9.59766 7.05469L6.78125 9.87109C6.64453 10.0078 6.45312 10.0625 6.28906 10.0625ZM4.86719 7.65625C4.62109 7.65625 4.45703 7.98438 4.64844 8.20312L6.07031 9.57031C6.17969 9.70703 6.37109 9.70703 6.48047 9.57031L9.29688 6.78125C9.57031 6.48047 9.16016 6.04297 8.88672 6.34375L6.42578 8.80469C6.34375 8.88672 6.20703 8.88672 6.15234 8.80469L5.11328 7.76562C5.03125 7.71094 4.97656 7.65625 4.86719 7.65625ZM7 11.9766C4.78516 11.9766 2.98047 10.1719 2.98047 7.95703C2.98047 5.74219 4.78516 3.96484 7 3.96484C9.21484 3.96484 10.9922 5.74219 10.9922 7.95703C10.9922 10.1719 9.21484 11.9766 7 11.9766ZM7 4.34766C5.00391 4.34766 3.39062 5.96094 3.39062 7.95703C3.39062 9.95312 5.00391 11.5664 7 11.5664C8.99609 11.5664 10.6094 9.95312 10.6094 7.95703C10.582 5.96094 8.96875 4.34766 7 4.34766ZM9.65234 0.410156H1.77734V13.6172H12.2227V2.95312H9.87109C9.76172 2.95312 9.65234 2.87109 9.65234 2.73438V0.410156ZM10.0625 0.683594V2.54297H11.9492L10.0625 0.683594Z" fill="#004BB1"/>
<path fill-rule="evenodd" clip-rule="evenodd" d="M6.28906 8.36719L8.61328 6.04297C9.02344 5.60547 9.81641 5.90625 9.81641 6.5625C9.81641 6.75391 9.73438 6.91797 9.59766 7.05469L6.78125 9.87109C6.64453 10.0078 6.45312 10.0625 6.28906 10.0625C6.09766 10.0625 5.93359 10.0078 5.79688 9.87109L4.375 8.47656C3.9375 8.03906 4.26562 7.27344 4.86719 7.27344C5.05859 7.27344 5.25 7.32812 5.38672 7.46484L6.28906 8.36719ZM7 11.5664C8.99609 11.5664 10.6094 9.95312 10.6094 7.95703C10.582 5.96094 8.96875 4.34766 7 4.34766C5.00391 4.34766 3.39062 5.96094 3.39062 7.95703C3.39062 9.95312 5.00391 11.5664 7 11.5664Z" fill="#91D8E4"/>
<path fill-rule="evenodd" clip-rule="evenodd" d="M8.88672 6.34377L6.42578 8.80471C6.34375 8.88674 6.20703 8.88674 6.15234 8.80471L5.11328 7.76565C5.03125 7.71096 4.97656 7.65627 4.86719 7.65627C4.62109 7.65627 4.45703 7.9844 4.64844 8.20315L6.07031 9.57034C6.17969 9.70705 6.37109 9.70705 6.48047 9.57034L9.29687 6.78127C9.57031 6.48049 9.16015 6.04299 8.88672 6.34377Z" fill="white"/>
<path fill-rule="evenodd" clip-rule="evenodd" d="M7 3.96484C9.21484 3.96484 10.9922 5.74219 10.9922 7.95703C10.9922 10.1719 9.21484 11.9766 7 11.9766C4.78516 11.9766 2.98047 10.1719 2.98047 7.95703C2.98047 5.74219 4.78516 3.96484 7 3.96484ZM7 12.3867C9.43359 12.3867 11.4023 10.3906 11.4023 7.95703C11.4023 5.52344 9.43359 3.55469 7 3.55469C4.56641 3.55469 2.59766 5.52344 2.59766 7.95703C2.59766 10.3906 4.56641 12.3867 7 12.3867Z" fill="white"/>
<path fill-rule="evenodd" clip-rule="evenodd" d="M7 3.14453C9.65234 3.14453 11.8125 5.30469 11.8125 7.95703C11.8125 10.6094 9.65234 12.7695 7 12.7695C4.34766 12.7695 2.1875 10.6094 2.1875 7.95703C2.1875 5.30469 4.34766 3.14453 7 3.14453ZM1.77734 13.6172H12.2227V2.95312H9.87109C9.76172 2.95312 9.65234 2.87109 9.65234 2.73438V0.410156H1.77734V13.6172Z" fill="#91D8E4"/>
<path fill-rule="evenodd" clip-rule="evenodd" d="M10.0625 2.54297H11.9492L10.0625 0.683594V2.54297Z" fill="white"/>
</svg>
