<svg width="14" height="14" viewBox="0 0 14 14" fill="none" xmlns="http://www.w3.org/2000/svg">
<g clip-path="url(#clip0_342_10260)">
<path fill-rule="evenodd" clip-rule="evenodd" d="M8.628 7.18453H5.03573C4.78969 7.18453 4.78969 6.81547 5.03573 6.81547H8.628C8.87405 6.81547 8.87405 7.18453 8.628 7.18453ZM6.9959 14C3.14118 14 0 10.8588 0 6.9959C0 3.14118 3.14118 0 6.9959 0C10.8588 0 14 3.14118 14 6.9959C14 10.8588 10.8588 14 6.9959 14ZM6.9959 0.37727C3.34622 0.37727 0.37727 3.34622 0.37727 6.9959C0.37727 10.6538 3.34622 13.6227 6.9959 13.6227C10.6538 13.6227 13.6227 10.6538 13.6227 6.9959C13.6227 3.34622 10.6538 0.37727 6.9959 0.37727ZM6.9959 3.215C6.65143 3.215 6.37258 2.93615 6.37258 2.59168V1.58289C6.37258 1.23843 6.65964 0.959578 6.9959 0.959578C7.34036 0.959578 7.61921 1.23843 7.61921 1.58289V2.59168C7.61921 2.93615 7.34036 3.215 6.9959 3.215ZM6.9959 1.32865C6.86467 1.32865 6.74985 1.44347 6.74985 1.58289V2.59168C6.74985 2.91974 7.25015 2.91974 7.25015 2.59168V1.58289C7.25015 1.44347 7.13532 1.32865 6.9959 1.32865ZM10.1125 4.50264C9.56298 4.50264 9.28412 3.83011 9.6778 3.44464L10.3913 2.73111C10.6292 2.48506 11.0228 2.48506 11.2689 2.73111C11.5149 2.96895 11.5149 3.36262 11.2689 3.60867L10.5554 4.3222C10.4405 4.43702 10.2847 4.50264 10.1125 4.50264ZM10.826 2.91974C10.7604 2.91974 10.703 2.94435 10.6538 2.99356L9.94025 3.70709C9.7024 3.94493 10.0633 4.2894 10.2929 4.05975L11.0064 3.34622C11.1623 3.19039 11.0557 2.91974 10.826 2.91974ZM12.4171 7.61921H11.4083C11.0639 7.61921 10.785 7.34036 10.785 6.9959C10.785 6.65143 11.0639 6.37258 11.4083 6.37258H12.4171C12.7616 6.37258 13.0404 6.65964 13.0404 6.9959C13.0404 7.34036 12.7616 7.61921 12.4171 7.61921ZM11.4083 6.74985C11.0803 6.74985 11.0803 7.25015 11.4083 7.25015H12.4171C12.7452 7.25015 12.7452 6.74985 12.4171 6.74985H11.4083ZM10.826 11.4493C10.662 11.4493 10.5062 11.3837 10.3913 11.2689L9.6778 10.5554C9.28412 10.1617 9.56298 9.49736 10.1125 9.49736C10.2847 9.49736 10.4405 9.55477 10.5554 9.6778L11.2689 10.3913C11.6626 10.7768 11.3837 11.4493 10.826 11.4493ZM10.1125 9.86643C9.89104 9.86643 9.78442 10.1371 9.94025 10.2929L10.6538 11.0064C10.8834 11.2361 11.2443 10.8916 11.0064 10.6538L10.2929 9.94025C10.2437 9.89104 10.1863 9.86643 10.1125 9.86643ZM6.9959 13.0404C6.65143 13.0404 6.37258 12.7616 6.37258 12.4171V11.4083C6.37258 11.0639 6.65964 10.785 6.9959 10.785C7.34036 10.785 7.61921 11.0639 7.61921 11.4083V12.4171C7.61921 12.7616 7.34036 13.0404 6.9959 13.0404ZM6.9959 11.1541C6.86467 11.1541 6.74985 11.2689 6.74985 11.4083V12.4171C6.74985 12.7452 7.25015 12.7452 7.25015 12.4171V11.4083C7.25015 11.2689 7.13532 11.1541 6.9959 11.1541ZM3.16579 11.4493C2.61629 11.4493 2.33743 10.7768 2.73111 10.3913L3.44464 9.6778C3.83011 9.28412 4.50264 9.56298 4.50264 10.1125C4.50264 10.2847 4.43702 10.4405 4.3222 10.5554L3.60867 11.2689C3.49385 11.3837 3.33802 11.4493 3.16579 11.4493ZM3.87932 9.86643C3.81371 9.86643 3.7481 9.89104 3.70709 9.94025L2.99356 10.6538C2.75571 10.8916 3.11658 11.2361 3.34622 11.0064L4.05975 10.2929C4.21558 10.1371 4.10896 9.86643 3.87932 9.86643ZM2.59168 7.61921H1.58289C1.23843 7.61921 0.959578 7.34036 0.959578 6.9959C0.959578 6.65143 1.23843 6.37258 1.58289 6.37258H2.59168C2.93615 6.37258 3.215 6.65964 3.215 6.9959C3.215 7.34036 2.93615 7.61921 2.59168 7.61921ZM1.58289 6.74985C1.25483 6.74985 1.25483 7.25015 1.58289 7.25015H2.59168C2.91974 7.25015 2.91974 6.74985 2.59168 6.74985H1.58289ZM3.87932 4.50264C3.71529 4.50264 3.55946 4.43702 3.44464 4.3222L2.73111 3.60867C2.33743 3.215 2.61629 2.55067 3.16579 2.55067C3.33802 2.55067 3.49385 2.60808 3.60867 2.73111L4.3222 3.44464C4.70767 3.83011 4.43702 4.50264 3.87932 4.50264ZM3.16579 2.91974C2.94435 2.91974 2.83773 3.19039 2.99356 3.34622L3.70709 4.05975C3.93673 4.2894 4.2894 3.93673 4.05975 3.70709L3.34622 2.99356C3.29701 2.94435 3.2314 2.91974 3.16579 2.91974ZM9.7188 8.04569H4.28119C4.17458 8.04569 4.09256 7.96368 4.09256 7.86526V6.13474C4.09256 6.03632 4.17458 5.9461 4.28119 5.9461H9.7188C9.81722 5.9461 9.89924 6.03632 9.89924 6.13474V7.86526C9.89924 7.96368 9.81722 8.04569 9.7188 8.04569ZM4.46983 7.67663H9.53017V6.32337H4.46983V7.67663Z" fill="#004BB1"/>
<path fill-rule="evenodd" clip-rule="evenodd" d="M8.62801 7.18465H5.03574C4.78969 7.18465 4.78969 6.81558 5.03574 6.81558H8.62801C8.87405 6.81558 8.87405 7.18465 8.62801 7.18465ZM9.53017 6.32349H4.46983V7.67674H9.53017V6.32349Z" fill="#91D8E4"/>
<path fill-rule="evenodd" clip-rule="evenodd" d="M9.71881 8.04562H4.2812C4.17458 8.04562 4.09256 7.96361 4.09256 7.86519V6.13467C4.09256 6.03625 4.17458 5.94603 4.2812 5.94603H9.71881C9.81723 5.94603 9.89924 6.03625 9.89924 6.13467V7.86519C9.89924 7.96361 9.81723 8.04562 9.71881 8.04562ZM6.9959 3.21492C6.65144 3.21492 6.37259 2.93607 6.37259 2.59161V1.58282C6.37259 1.23836 6.65964 0.959505 6.9959 0.959505C7.34037 0.959505 7.61922 1.23836 7.61922 1.58282V2.59161C7.61922 2.93607 7.34037 3.21492 6.9959 3.21492ZM10.1125 4.50256C9.56298 4.50256 9.28413 3.83004 9.6778 3.44457L10.3913 2.73103C10.6292 2.48499 11.0229 2.48499 11.2689 2.73103C11.5149 2.96888 11.5149 3.36255 11.2689 3.6086L10.5554 4.32213C10.4405 4.43695 10.2847 4.50256 10.1125 4.50256ZM12.4171 7.61914H11.4083C11.0639 7.61914 10.785 7.34029 10.785 6.99583C10.785 6.65136 11.0639 6.37251 11.4083 6.37251H12.4171C12.7616 6.37251 13.0404 6.65956 13.0404 6.99583C13.0404 7.34029 12.7616 7.61914 12.4171 7.61914ZM9.6778 10.5553C9.28413 10.1616 9.56298 9.49729 10.1125 9.49729C10.2847 9.49729 10.4405 9.5547 10.5554 9.67772L11.2689 10.3913C11.6626 10.7767 11.3837 11.4493 10.826 11.4493C10.662 11.4493 10.5062 11.3836 10.3913 11.2688L9.6778 10.5553ZM6.9959 10.7849C7.34037 10.7849 7.61922 11.0638 7.61922 11.4082V12.417C7.61922 12.7615 7.34037 13.0403 6.9959 13.0403C6.65144 13.0403 6.37259 12.7615 6.37259 12.417V11.4082C6.37259 11.0638 6.65964 10.7849 6.9959 10.7849ZM4.32221 10.5553L3.60867 11.2688C3.49385 11.3836 3.33802 11.4493 3.16579 11.4493C2.61629 11.4493 2.33744 10.7767 2.73111 10.3913L3.44464 9.67772C3.83011 9.28405 4.50264 9.5629 4.50264 10.1124C4.50264 10.2846 4.43703 10.4405 4.32221 10.5553ZM2.59168 7.61914H1.5829C1.23843 7.61914 0.959582 7.34029 0.959582 6.99583C0.959582 6.65136 1.23843 6.37251 1.5829 6.37251H2.59168C2.93615 6.37251 3.215 6.65956 3.215 6.99583C3.215 7.34029 2.93615 7.61914 2.59168 7.61914ZM3.87932 4.50256C3.71529 4.50256 3.55946 4.43695 3.44464 4.32213L2.73111 3.6086C2.33744 3.21492 2.61629 2.5506 3.16579 2.5506C3.33802 2.5506 3.49385 2.60801 3.60867 2.73103L4.32221 3.44457C4.70768 3.83004 4.43703 4.50256 3.87932 4.50256ZM0.377274 6.99583C0.377274 10.6537 3.34622 13.6227 6.9959 13.6227C10.6538 13.6227 13.6227 10.6537 13.6227 6.99583C13.6227 3.34615 10.6538 0.377197 6.9959 0.377197C3.34622 0.377197 0.377274 3.34615 0.377274 6.99583Z" fill="#91D8E4"/>
<path fill-rule="evenodd" clip-rule="evenodd" d="M10.1125 9.86646C9.89104 9.86646 9.78442 10.1371 9.94025 10.2929L10.6538 11.0065C10.8834 11.2361 11.2443 10.8916 11.0064 10.6538L10.2929 9.94027C10.2437 9.89106 10.1863 9.86646 10.1125 9.86646Z" fill="#91D8E4"/>
<path fill-rule="evenodd" clip-rule="evenodd" d="M7.25015 12.4171V11.4083C7.25015 11.2689 7.13533 11.1541 6.9959 11.1541C6.86468 11.1541 6.74986 11.2689 6.74986 11.4083V12.4171C6.74986 12.7451 7.25015 12.7451 7.25015 12.4171Z" fill="#91D8E4"/>
<path fill-rule="evenodd" clip-rule="evenodd" d="M3.34622 11.0065L4.05975 10.2929C4.21558 10.1371 4.10896 9.86646 3.87932 9.86646C3.81371 9.86646 3.74809 9.89106 3.70709 9.94027L2.99355 10.6538C2.75571 10.8916 3.11658 11.2361 3.34622 11.0065Z" fill="#91D8E4"/>
<path fill-rule="evenodd" clip-rule="evenodd" d="M1.58289 7.25005H2.59168C2.91974 7.25005 2.91974 6.74976 2.59168 6.74976H1.58289C1.25483 6.74976 1.25483 7.25005 1.58289 7.25005Z" fill="#91D8E4"/>
<path fill-rule="evenodd" clip-rule="evenodd" d="M2.99356 3.34616L3.70709 4.05969C3.93673 4.28933 4.2894 3.93667 4.05975 3.70702L3.34622 2.99349C3.29701 2.94428 3.2314 2.91968 3.16579 2.91968C2.94435 2.91968 2.83773 3.19033 2.99356 3.34616Z" fill="#91D8E4"/>
<path fill-rule="evenodd" clip-rule="evenodd" d="M6.74986 1.58286V2.59165C6.74986 2.91971 7.25015 2.91971 7.25015 2.59165V1.58286C7.25015 1.44343 7.13533 1.32861 6.9959 1.32861C6.86468 1.32861 6.74986 1.44343 6.74986 1.58286Z" fill="#91D8E4"/>
<path fill-rule="evenodd" clip-rule="evenodd" d="M10.6538 2.99349L9.94025 3.70702C9.7024 3.94487 10.0633 4.28933 10.2929 4.05969L11.0064 3.34616C11.1623 3.19033 11.0557 2.91968 10.826 2.91968C10.7604 2.91968 10.703 2.94428 10.6538 2.99349Z" fill="#91D8E4"/>
<path fill-rule="evenodd" clip-rule="evenodd" d="M12.4171 6.74976H11.4083C11.0803 6.74976 11.0803 7.25005 11.4083 7.25005H12.4171C12.7452 7.25005 12.7452 6.74976 12.4171 6.74976Z" fill="#91D8E4"/>
</g>
<defs>
<clipPath id="clip0_342_10260">
<rect width="14" height="14" fill="white"/>
</clipPath>
</defs>
</svg>
