<svg width="17" height="16" viewBox="0 0 17 16" fill="none" xmlns="http://www.w3.org/2000/svg">
<g clip-path="url(#clip0_342_10126)">
<path fill-rule="evenodd" clip-rule="evenodd" d="M10.3606 8.2109H6.25513C5.97393 8.2109 5.97393 7.7891 6.25513 7.7891H10.3606C10.6418 7.7891 10.6418 8.2109 10.3606 8.2109ZM8.49531 16C4.08992 16 0.5 12.4101 0.5 7.99531C0.5 3.58992 4.08992 0 8.49531 0C12.9101 0 16.5 3.58992 16.5 7.99531C16.5 12.4101 12.9101 16 8.49531 16ZM8.49531 0.431166C4.32425 0.431166 0.931166 3.82425 0.931166 7.99531C0.931166 12.1757 4.32425 15.5688 8.49531 15.5688C12.6757 15.5688 16.0688 12.1757 16.0688 7.99531C16.0688 3.82425 12.6757 0.431166 8.49531 0.431166ZM8.49531 3.67428C8.10164 3.67428 7.78295 3.35559 7.78295 2.96192V1.80902C7.78295 1.41535 8.11101 1.09666 8.49531 1.09666C8.88899 1.09666 9.20767 1.41535 9.20767 1.80902V2.96192C9.20767 3.35559 8.88899 3.67428 8.49531 3.67428ZM8.49531 1.51845C8.34534 1.51845 8.21412 1.64968 8.21412 1.80902V2.96192C8.21412 3.33685 8.78588 3.33685 8.78588 2.96192V1.80902C8.78588 1.64968 8.65466 1.51845 8.49531 1.51845ZM12.0571 5.14587C11.4291 5.14587 11.1104 4.37727 11.5603 3.93673L12.3758 3.12127C12.6476 2.84007 13.0975 2.84007 13.3787 3.12127C13.6599 3.39309 13.6599 3.843 13.3787 4.12419L12.5633 4.93966C12.432 5.07088 12.254 5.14587 12.0571 5.14587ZM12.8726 3.33685C12.7976 3.33685 12.732 3.36497 12.6757 3.42121L11.8603 4.23667C11.5885 4.50849 12.0009 4.90217 12.2633 4.63972L13.0788 3.82425C13.2569 3.64616 13.135 3.33685 12.8726 3.33685ZM14.691 8.70767H13.5381C13.1444 8.70767 12.8257 8.38899 12.8257 7.99531C12.8257 7.60164 13.1444 7.28295 13.5381 7.28295H14.691C15.0847 7.28295 15.4033 7.61101 15.4033 7.99531C15.4033 8.38899 15.0847 8.70767 14.691 8.70767ZM13.5381 7.71412C13.1632 7.71412 13.1632 8.28588 13.5381 8.28588H14.691C15.0659 8.28588 15.0659 7.71412 14.691 7.71412H13.5381ZM12.8726 13.0849C12.6851 13.0849 12.507 13.01 12.3758 12.8787L11.5603 12.0633C11.1104 11.6134 11.4291 10.8541 12.0571 10.8541C12.254 10.8541 12.432 10.9197 12.5633 11.0603L13.3787 11.8758C13.8286 12.3163 13.51 13.0849 12.8726 13.0849ZM12.0571 11.2759C11.804 11.2759 11.6822 11.5852 11.8603 11.7633L12.6757 12.5788C12.9382 12.8412 13.3506 12.4476 13.0788 12.1757L12.2633 11.3603C12.2071 11.304 12.1415 11.2759 12.0571 11.2759ZM8.49531 14.9033C8.10164 14.9033 7.78295 14.5847 7.78295 14.191V13.0381C7.78295 12.6444 8.11101 12.3257 8.49531 12.3257C8.88899 12.3257 9.20767 12.6444 9.20767 13.0381V14.191C9.20767 14.5847 8.88899 14.9033 8.49531 14.9033ZM8.49531 12.7475C8.34534 12.7475 8.21412 12.8787 8.21412 13.0381V14.191C8.21412 14.5659 8.78588 14.5659 8.78588 14.191V13.0381C8.78588 12.8787 8.65466 12.7475 8.49531 12.7475ZM4.11804 13.0849C3.49004 13.0849 3.17135 12.3163 3.62127 11.8758L4.43673 11.0603C4.87727 10.6104 5.64587 10.9291 5.64587 11.5571C5.64587 11.754 5.57088 11.932 5.43966 12.0633L4.62419 12.8787C4.49297 13.01 4.31488 13.0849 4.11804 13.0849ZM4.93351 11.2759C4.85852 11.2759 4.78354 11.304 4.73667 11.3603L3.92121 12.1757C3.64938 12.4476 4.0618 12.8412 4.32425 12.5788L5.13972 11.7633C5.31781 11.5852 5.19596 11.2759 4.93351 11.2759ZM3.46192 8.70767H2.30902C1.91535 8.70767 1.59666 8.38899 1.59666 7.99531C1.59666 7.60164 1.91535 7.28295 2.30902 7.28295H3.46192C3.85559 7.28295 4.17428 7.61101 4.17428 7.99531C4.17428 8.38899 3.85559 8.70767 3.46192 8.70767ZM2.30902 7.71412C1.93409 7.71412 1.93409 8.28588 2.30902 8.28588H3.46192C3.83685 8.28588 3.83685 7.71412 3.46192 7.71412H2.30902ZM4.93351 5.14587C4.74605 5.14587 4.56796 5.07088 4.43673 4.93966L3.62127 4.12419C3.17135 3.67428 3.49004 2.91506 4.11804 2.91506C4.31488 2.91506 4.49297 2.98067 4.62419 3.12127L5.43966 3.93673C5.8802 4.37727 5.57088 5.14587 4.93351 5.14587ZM4.11804 3.33685C3.86497 3.33685 3.74312 3.64616 3.92121 3.82425L4.73667 4.63972C4.99912 4.90217 5.40217 4.49912 5.13972 4.23667L4.32425 3.42121C4.26801 3.36497 4.19303 3.33685 4.11804 3.33685ZM11.6072 9.19508H5.39279C5.27094 9.19508 5.17721 9.10135 5.17721 8.98887V7.01113C5.17721 6.89865 5.27094 6.79555 5.39279 6.79555H11.6072C11.7197 6.79555 11.8134 6.89865 11.8134 7.01113V8.98887C11.8134 9.10135 11.7197 9.19508 11.6072 9.19508ZM5.60838 8.77329H11.3916V7.22671H5.60838V8.77329Z" fill="#004BB1"/>
<path fill-rule="evenodd" clip-rule="evenodd" d="M10.3606 8.21099H6.25512C5.97392 8.21099 5.97392 7.7892 6.25512 7.7892H10.3606C10.6418 7.7892 10.6418 8.21099 10.3606 8.21099ZM11.3916 7.22681H5.60837V8.77338H11.3916V7.22681Z" fill="#91D8E4"/>
<path fill-rule="evenodd" clip-rule="evenodd" d="M11.6072 9.19506H5.39278C5.27093 9.19506 5.1772 9.10133 5.1772 8.98886V7.01112C5.1772 6.89864 5.27093 6.79553 5.39278 6.79553H11.6072C11.7197 6.79553 11.8134 6.89864 11.8134 7.01112V8.98886C11.8134 9.10133 11.7197 9.19506 11.6072 9.19506ZM8.4953 3.67427C8.10163 3.67427 7.78294 3.35558 7.78294 2.96191V1.80901C7.78294 1.41534 8.111 1.09665 8.4953 1.09665C8.88897 1.09665 9.20766 1.41534 9.20766 1.80901V2.96191C9.20766 3.35558 8.88897 3.67427 8.4953 3.67427ZM12.0571 5.14586C11.4291 5.14586 11.1104 4.37726 11.5603 3.93672L12.3758 3.12125C12.6476 2.84006 13.0975 2.84006 13.3787 3.12125C13.6599 3.39307 13.6599 3.84299 13.3787 4.12418L12.5633 4.93965C12.432 5.07087 12.2539 5.14586 12.0571 5.14586ZM14.691 8.70766H13.5381C13.1444 8.70766 12.8257 8.38897 12.8257 7.9953C12.8257 7.60163 13.1444 7.28294 13.5381 7.28294H14.691C15.0846 7.28294 15.4033 7.611 15.4033 7.9953C15.4033 8.38897 15.0846 8.70766 14.691 8.70766ZM11.5603 12.0633C11.1104 11.6133 11.4291 10.8541 12.0571 10.8541C12.2539 10.8541 12.432 10.9197 12.5633 11.0603L13.3787 11.8758C13.8286 12.3163 13.5099 13.0849 12.8726 13.0849C12.6851 13.0849 12.507 13.0099 12.3758 12.8787L11.5603 12.0633ZM8.4953 12.3257C8.88897 12.3257 9.20766 12.6444 9.20766 13.0381V14.191C9.20766 14.5846 8.88897 14.9033 8.4953 14.9033C8.10163 14.9033 7.78294 14.5846 7.78294 14.191V13.0381C7.78294 12.6444 8.111 12.3257 8.4953 12.3257ZM5.43965 12.0633L4.62418 12.8787C4.49296 13.0099 4.31487 13.0849 4.11803 13.0849C3.49003 13.0849 3.17134 12.3163 3.62125 11.8758L4.43672 11.0603C4.87726 10.6104 5.64586 10.9291 5.64586 11.5571C5.64586 11.7539 5.57087 11.932 5.43965 12.0633ZM3.46191 8.70766H2.30901C1.91534 8.70766 1.59665 8.38897 1.59665 7.9953C1.59665 7.60163 1.91534 7.28294 2.30901 7.28294H3.46191C3.85558 7.28294 4.17427 7.611 4.17427 7.9953C4.17427 8.38897 3.85558 8.70766 3.46191 8.70766ZM4.9335 5.14586C4.74603 5.14586 4.56794 5.07087 4.43672 4.93965L3.62125 4.12418C3.17134 3.67427 3.49003 2.91504 4.11803 2.91504C4.31487 2.91504 4.49296 2.98065 4.62418 3.12125L5.43965 3.93672C5.88019 4.37726 5.57087 5.14586 4.9335 5.14586ZM0.931152 7.9953C0.931152 12.1757 4.32424 15.5688 8.4953 15.5688C12.6757 15.5688 16.0688 12.1757 16.0688 7.9953C16.0688 3.82424 12.6757 0.431152 8.4953 0.431152C4.32424 0.431152 0.931152 3.82424 0.931152 7.9953Z" fill="#91D8E4"/>
<path fill-rule="evenodd" clip-rule="evenodd" d="M12.0571 11.2759C11.804 11.2759 11.6822 11.5852 11.8603 11.7633L12.6757 12.5787C12.9382 12.8412 13.3506 12.4475 13.0788 12.1757L12.2633 11.3602C12.2071 11.304 12.1415 11.2759 12.0571 11.2759Z" fill="#91D8E4"/>
<path fill-rule="evenodd" clip-rule="evenodd" d="M8.78587 14.191V13.0381C8.78587 12.8788 8.65465 12.7476 8.49531 12.7476C8.34534 12.7476 8.21411 12.8788 8.21411 13.0381V14.191C8.21411 14.566 8.78587 14.566 8.78587 14.191Z" fill="#91D8E4"/>
<path fill-rule="evenodd" clip-rule="evenodd" d="M4.32426 12.5787L5.13972 11.7633C5.31781 11.5852 5.19596 11.2759 4.93351 11.2759C4.85853 11.2759 4.78354 11.304 4.73668 11.3602L3.92121 12.1757C3.64939 12.4475 4.06181 12.8412 4.32426 12.5787Z" fill="#91D8E4"/>
<path fill-rule="evenodd" clip-rule="evenodd" d="M2.30903 8.28587H3.46193C3.83685 8.28587 3.83685 7.71411 3.46193 7.71411H2.30903C1.9341 7.71411 1.9341 8.28587 2.30903 8.28587Z" fill="#91D8E4"/>
<path fill-rule="evenodd" clip-rule="evenodd" d="M3.92121 3.82432L4.73668 4.63978C4.99913 4.90223 5.40217 4.49919 5.13972 4.23674L4.32426 3.42127C4.26802 3.36503 4.19303 3.33691 4.11805 3.33691C3.86497 3.33691 3.74312 3.64623 3.92121 3.82432Z" fill="#91D8E4"/>
<path fill-rule="evenodd" clip-rule="evenodd" d="M8.21411 1.80912V2.96202C8.21411 3.33695 8.78587 3.33695 8.78587 2.96202V1.80912C8.78587 1.64978 8.65465 1.51855 8.49531 1.51855C8.34534 1.51855 8.21411 1.64978 8.21411 1.80912Z" fill="#91D8E4"/>
<path fill-rule="evenodd" clip-rule="evenodd" d="M12.6757 3.42127L11.8603 4.23674C11.5884 4.50856 12.0009 4.90223 12.2633 4.63978L13.0788 3.82432C13.2569 3.64623 13.135 3.33691 12.8726 3.33691C12.7976 3.33691 12.732 3.36503 12.6757 3.42127Z" fill="#91D8E4"/>
<path fill-rule="evenodd" clip-rule="evenodd" d="M14.691 7.71411H13.5381C13.1632 7.71411 13.1632 8.28587 13.5381 8.28587H14.691C15.0659 8.28587 15.0659 7.71411 14.691 7.71411Z" fill="#91D8E4"/>
</g>
<defs>
<clipPath id="clip0_342_10126">
<rect width="16" height="16" fill="white" transform="translate(0.5)"/>
</clipPath>
</defs>
</svg>
