<svg width="30" height="12" viewBox="0 0 30 12" fill="none" xmlns="http://www.w3.org/2000/svg">
<path d="M4.65405 11.5444C7.34204 11.5444 8.93872 9.44238 8.93872 5.88281C8.93872 4.54248 8.68237 3.41455 8.19165 2.54297C7.4812 1.18799 6.25806 0.455566 4.71265 0.455566C2.41284 0.455566 0.786865 2.00098 0.786865 4.16895C0.786865 6.20508 2.25171 7.68457 4.26587 7.68457C5.50366 7.68457 6.50708 7.10596 7.00513 6.10254H7.0271C7.0271 6.10254 7.0564 6.10254 7.06372 6.10254C7.07837 6.10254 7.12964 6.10254 7.12964 6.10254C7.12964 8.51953 6.21411 9.9624 4.6687 9.9624C3.7605 9.9624 3.05737 9.46436 2.81567 8.66602H0.93335C1.24829 10.4019 2.72046 11.5444 4.65405 11.5444ZM4.71997 6.18311C3.50415 6.18311 2.63989 5.31885 2.63989 4.11035C2.63989 2.93115 3.5481 2.03027 4.72729 2.03027C5.90649 2.03027 6.8147 2.9458 6.8147 4.13965C6.8147 5.31885 5.92847 6.18311 4.71997 6.18311Z" fill="#151619"/>
<path d="M12.0298 11.4419C12.7256 11.4419 13.2017 10.9438 13.2017 10.2847C13.2017 9.61816 12.7256 9.12744 12.0298 9.12744C11.3414 9.12744 10.858 9.61816 10.858 10.2847C10.858 10.9438 11.3414 11.4419 12.0298 11.4419ZM12.0298 5.94873C12.7256 5.94873 13.2017 5.45801 13.2017 4.79883C13.2017 4.13232 12.7256 3.6416 12.0298 3.6416C11.3414 3.6416 10.858 4.13232 10.858 4.79883C10.858 5.45801 11.3414 5.94873 12.0298 5.94873Z" fill="#151619"/>
<path d="M20.0575 11.2881H21.8666V9.31787H23.2948V7.72119H21.8666V0.719238H19.2005C17.3329 3.53174 15.846 5.88281 14.8939 7.6333V9.31787H20.0575V11.2881ZM16.6444 7.65527C17.8749 5.4873 18.9735 3.75146 19.9842 2.25732H20.0868V7.76514H16.6444V7.65527Z" fill="#151619"/>
<path d="M27.3234 11.2881H29.213V0.719238H27.3307L24.5695 2.65283V4.46924L27.1989 2.62354H27.3234V11.2881Z" fill="#151619"/>
</svg>
