<svg width="30" height="12" viewBox="0 0 30 12" fill="none" xmlns="http://www.w3.org/2000/svg">
<path d="M4.65411 11.5444C7.3421 11.5444 8.93878 9.44238 8.93878 5.88281C8.93878 4.54248 8.68243 3.41455 8.19171 2.54297C7.48126 1.18799 6.25812 0.455566 4.71271 0.455566C2.4129 0.455566 0.786926 2.00098 0.786926 4.16895C0.786926 6.20508 2.25177 7.68457 4.26593 7.68457C5.50372 7.68457 6.50714 7.10596 7.00519 6.10254H7.02716C7.02716 6.10254 7.05646 6.10254 7.06378 6.10254C7.07843 6.10254 7.1297 6.10254 7.1297 6.10254C7.1297 8.51953 6.21417 9.9624 4.66876 9.9624C3.76056 9.9624 3.05743 9.46436 2.81573 8.66602H0.933411C1.24835 10.4019 2.72052 11.5444 4.65411 11.5444ZM4.72003 6.18311C3.50421 6.18311 2.63995 5.31885 2.63995 4.11035C2.63995 2.93115 3.54816 2.03027 4.72736 2.03027C5.90656 2.03027 6.81476 2.9458 6.81476 4.13965C6.81476 5.31885 5.92853 6.18311 4.72003 6.18311Z" fill="#151619"/>
<path d="M12.0299 11.4419C12.7257 11.4419 13.2018 10.9438 13.2018 10.2847C13.2018 9.61816 12.7257 9.12744 12.0299 9.12744C11.3414 9.12744 10.858 9.61816 10.858 10.2847C10.858 10.9438 11.3414 11.4419 12.0299 11.4419ZM12.0299 5.94873C12.7257 5.94873 13.2018 5.45801 13.2018 4.79883C13.2018 4.13232 12.7257 3.6416 12.0299 3.6416C11.3414 3.6416 10.858 4.13232 10.858 4.79883C10.858 5.45801 11.3414 5.94873 12.0299 5.94873Z" fill="#151619"/>
<path d="M20.0575 11.2881H21.8666V9.31787H23.2948V7.72119H21.8666V0.719238H19.2006C17.3329 3.53174 15.8461 5.88281 14.894 7.6333V9.31787H20.0575V11.2881ZM16.6444 7.65527C17.8749 5.4873 18.9735 3.75146 19.9843 2.25732H20.0868V7.76514H16.6444V7.65527Z" fill="#151619"/>
<path d="M27.3234 11.2881H29.2131V0.719238H27.3308L24.5695 2.65283V4.46924L27.1989 2.62354H27.3234V11.2881Z" fill="#151619"/>
</svg>
