<svg width="40" height="40" viewBox="0 0 40 40" fill="none" xmlns="http://www.w3.org/2000/svg">
<g clip-path="url(#clip0_377_935)">
<rect width="40" height="40" rx="7" fill="#F1F7FF"/>
<path d="M0 0H40V40H0V0Z" fill="#F1F7FF"/>
<path d="M29.1667 18.7501C29.8571 18.7501 30.4167 19.3097 30.4167 20.0001C30.4167 20.6905 29.8571 21.2501 29.1667 21.2501V18.7501ZM9.94949 20.884C9.46134 20.3958 9.46134 19.6044 9.94949 19.1162L17.9045 11.1613C18.3926 10.6731 19.1841 10.6731 19.6722 11.1613C20.1604 11.6494 20.1604 12.4409 19.6722 12.929L12.6012 20.0001L19.6722 27.0712C20.1604 27.5593 20.1604 28.3508 19.6722 28.8389C19.1841 29.3271 18.3926 29.3271 17.9045 28.8389L9.94949 20.884ZM29.1667 21.2501H10.8334V18.7501H29.1667V21.2501Z" fill="#91D8E4"/>
</g>
<defs>
<clipPath id="clip0_377_935">
<rect width="40" height="40" rx="7" fill="white"/>
</clipPath>
</defs>
</svg>
