<svg width="40" height="40" viewBox="0 0 40 40" fill="none" xmlns="http://www.w3.org/2000/svg">
<g clip-path="url(#clip0_377_925)">
<rect width="40" height="40" rx="7" fill="#F1F7FF"/>
<path d="M0 0H40V40H0V0Z" fill="#F1F7FF"/>
<path d="M29.1668 18.7501C29.8572 18.7501 30.4168 19.3097 30.4168 20.0001C30.4168 20.6905 29.8572 21.2501 29.1668 21.2501V18.7501ZM9.94961 20.884C9.46146 20.3958 9.46146 19.6044 9.94961 19.1162L17.9046 11.1613C18.3927 10.6731 19.1842 10.6731 19.6723 11.1613C20.1605 11.6494 20.1605 12.4409 19.6723 12.929L12.6013 20.0001L19.6723 27.0712C20.1605 27.5593 20.1605 28.3508 19.6723 28.8389C19.1842 29.3271 18.3927 29.3271 17.9046 28.8389L9.94961 20.884ZM29.1668 21.2501H10.8335V18.7501H29.1668V21.2501Z" fill="#91D8E4"/>
</g>
<defs>
<clipPath id="clip0_377_925">
<rect width="40" height="40" rx="7" fill="white"/>
</clipPath>
</defs>
</svg>
