<svg width="22" height="22" viewBox="0 0 22 22" fill="none" xmlns="http://www.w3.org/2000/svg">
<path d="M19.448 9.2664L18.737 9.26581L18.737 9.22843L10.7933 9.22182L10.7896 12.8247L15.7779 12.8289C15.048 14.9256 13.091 16.4296 10.786 16.4276C7.86139 16.4252 5.49261 14.0034 5.49561 11.0189C5.49862 8.0343 7.87227 5.61647 10.7969 5.61891C12.1469 5.62003 13.3746 6.14077 14.3089 6.99049L16.808 4.44486C15.2331 2.94429 13.1254 2.01793 10.8005 2.016C5.92615 2.01194 1.97006 6.04166 1.96505 11.0159C1.96004 15.9902 5.908 20.0265 10.7824 20.0305C15.6568 20.0346 19.6129 16.0049 19.6179 11.0306C19.6185 10.4267 19.5582 9.8371 19.448 9.2664Z" fill="#FFC107"/>
<path d="M2.98636 6.82422L5.88409 8.99694C6.67076 7.01509 8.57249 5.61694 10.7963 5.61879C12.1463 5.61992 13.374 6.14066 14.3083 6.99037L16.8074 4.44474C15.2325 2.94417 13.1248 2.01782 10.7999 2.01588C7.40971 2.01306 4.46767 3.96384 2.98636 6.82422Z" fill="#FF3D00"/>
<path d="M10.7826 20.0304C13.0625 20.0323 15.1349 19.1437 16.7026 17.697L13.9732 15.3358C13.0566 16.0458 11.937 16.4294 10.7862 16.4275C8.49049 16.4256 6.54268 14.9301 5.81042 12.8448L2.92985 15.1054C4.38768 18.0237 7.35222 20.0275 10.7826 20.0304Z" fill="#4CAF50"/>
<path d="M19.4477 9.26645L18.7367 9.26586L18.7367 9.22848L10.793 9.22186L10.7893 12.8248L15.7776 12.8289C15.4285 13.8268 14.8005 14.6986 13.9714 15.3364L13.9727 15.3355L16.7021 17.6968C16.5086 17.8759 19.613 15.5343 19.6176 11.0307C19.6182 10.4267 19.5579 9.83715 19.4477 9.26645Z" fill="#1976D2"/>
</svg>
