<svg width="30" height="29" viewBox="0 0 30 29" fill="none" xmlns="http://www.w3.org/2000/svg">
<path d="M26.4408 11.9058L25.4986 11.9048L25.4987 11.8567L14.972 11.8457L14.9683 16.4887L21.5784 16.4956C20.6119 19.1974 18.019 21.1349 14.9645 21.1317C11.0889 21.1277 7.94924 18.0061 7.95235 14.1599C7.95546 10.3138 11.1002 7.19872 14.9758 7.20274C16.7647 7.2046 18.3917 7.87604 19.63 8.97133L22.941 5.69159C20.8536 3.75736 18.0603 2.56295 14.9795 2.55975C8.52022 2.55304 3.27901 7.74486 3.27383 14.1551C3.26865 20.5653 8.50147 25.768 14.9608 25.7747C21.42 25.7814 26.6613 20.5896 26.6664 14.1794C26.6671 13.4011 26.587 12.6413 26.4408 11.9058Z" fill="#FFC107"/>
<path d="M4.62609 8.75361L8.46665 11.5544C9.50852 9.00069 12.0282 7.19951 14.9751 7.20256C16.764 7.20442 18.391 7.87586 19.6294 8.97115L22.9403 5.69141C20.8529 3.75718 18.0596 2.56277 14.9788 2.55957C10.4863 2.55491 6.5882 5.06795 4.62609 8.75361Z" fill="#FF3D00"/>
<path d="M14.9613 25.7745C17.9825 25.7776 20.7285 24.6331 22.8055 22.7693L19.188 19.7256C17.9735 20.6404 16.4899 21.1343 14.9651 21.1315C11.9229 21.1283 9.34128 19.2006 8.37032 16.513L4.5538 19.4254C6.4865 23.1865 10.4155 25.7698 14.9613 25.7745Z" fill="#4CAF50"/>
<path d="M26.4402 11.9058L25.4981 11.9049L25.4981 11.8567L14.9714 11.8458L14.9677 16.4888L21.5779 16.4956C21.1155 17.7815 20.2837 18.9047 19.1851 19.7264L19.1869 19.7252L22.8044 22.769C22.5481 22.9997 26.6612 19.9831 26.6659 14.1794C26.6665 13.4011 26.5864 12.6413 26.4402 11.9058Z" fill="#1976D2"/>
</svg>
