<svg width="30" height="31" viewBox="0 0 30 31" fill="none" xmlns="http://www.w3.org/2000/svg">
<g opacity="0.65">
<path d="M24.9842 14.168H8.17654C8.17361 14.168 8.17068 14.1619 8.17361 14.1619L14.5135 7.86503C15.0262 7.35643 15.0437 6.5118 14.5486 5.98202C14.0564 5.45223 13.239 5.43407 12.7263 5.94569L4.09549 14.5161C3.84354 14.7674 3.69998 15.1155 3.69998 15.4758C3.69998 15.839 3.84354 16.1842 4.09549 16.4354L12.7732 25.0543C13.0222 25.3025 13.3445 25.4266 13.6668 25.4266C14.0066 25.4266 14.3435 25.2904 14.5955 25.018C15.0877 24.4882 15.073 23.6435 14.5603 23.1349L8.22049 16.8381C8.21756 16.835 8.22049 16.832 8.22342 16.832H25.0135C25.699 16.832 26.2586 16.278 26.2996 15.5817C26.3435 14.8098 25.7312 14.168 24.9842 14.168Z" fill="black" stroke="black"/>
</g>
</svg>
