<svg width="30" height="31" viewBox="0 0 30 31" fill="none" xmlns="http://www.w3.org/2000/svg">
<g opacity="0.65">
<path d="M24.9841 14.168H8.17651C8.17358 14.168 8.17065 14.1619 8.17358 14.1619L14.5134 7.86503C15.0261 7.35643 15.0437 6.5118 14.5486 5.98202C14.0564 5.45223 13.239 5.43407 12.7263 5.94569L4.09546 14.5161C3.84351 14.7674 3.69995 15.1155 3.69995 15.4758C3.69995 15.839 3.84351 16.1842 4.09546 16.4354L12.7732 25.0543C13.0222 25.3025 13.3445 25.4266 13.6667 25.4266C14.0066 25.4266 14.3435 25.2904 14.5955 25.018C15.0876 24.4882 15.073 23.6435 14.5603 23.1349L8.22046 16.8381C8.21753 16.835 8.22046 16.832 8.22339 16.832H25.0134C25.699 16.832 26.2585 16.278 26.2996 15.5817C26.3435 14.8098 25.7312 14.168 24.9841 14.168Z" fill="black" stroke="black"/>
</g>
</svg>
