<svg width="13" height="13" viewBox="0 0 13 13" fill="none" xmlns="http://www.w3.org/2000/svg">
<g clip-path="url(#clip0_342_10433)">
<path d="M12.4373 1.00137C11.7814 0.733724 11.0605 0.619019 10.3691 0.619019C9.21687 0.619019 7.97596 0.924901 7.11914 1.76608C6.26232 0.924901 5.02141 0.619019 3.86914 0.619019C2.71687 0.619019 1.47596 0.924901 0.619141 1.76608V12.969C0.619141 13.1602 0.766868 13.3514 0.914595 13.3514C0.973686 13.3514 1.00323 13.3131 1.06232 13.3131C1.86005 12.8161 3.01232 12.472 3.86914 12.472C5.02141 12.472 6.26232 12.7778 7.11914 13.619C7.91687 12.969 9.36459 12.472 10.3691 12.472C11.3441 12.472 12.3487 12.7014 13.176 13.2749C13.235 13.3131 13.2646 13.3131 13.3237 13.3131C13.4714 13.3131 13.6191 13.122 13.6191 12.9308V1.76608C13.2646 1.42196 12.8805 1.19255 12.4373 1.00137ZM12.4373 11.3249C11.7873 11.0573 11.0782 10.9425 10.3691 10.9425C9.36459 10.9425 7.91687 11.4396 7.11914 12.0896V3.29549C7.91687 2.64549 9.36459 2.14843 10.3691 2.14843C11.0782 2.14843 11.7873 2.26314 12.4373 2.53078V11.3249Z" fill="black"/>
</g>
<defs>
<clipPath id="clip0_342_10433">
<rect width="13" height="13" fill="white"/>
</clipPath>
</defs>
</svg>
