<svg width="16" height="17" viewBox="0 0 16 17" fill="none" xmlns="http://www.w3.org/2000/svg">
<g clip-path="url(#clip0_342_10374)">
<path d="M15.3074 1.30957C14.5001 0.95957 13.6129 0.80957 12.762 0.80957C11.3438 0.80957 9.81651 1.20957 8.76196 2.30957C7.70742 1.20957 6.18014 0.80957 4.76196 0.80957C3.34378 0.80957 1.81651 1.20957 0.761963 2.30957V16.9596C0.761963 17.2096 0.943781 17.4596 1.1256 17.4596C1.19833 17.4596 1.23469 17.4096 1.30742 17.4096C2.28924 16.7596 3.70742 16.3096 4.76196 16.3096C6.18014 16.3096 7.70742 16.7096 8.76196 17.8096C9.74378 16.9596 11.5256 16.3096 12.762 16.3096C13.962 16.3096 15.1983 16.6096 16.2165 17.3596C16.2892 17.4096 16.3256 17.4096 16.3983 17.4096C16.5801 17.4096 16.762 17.1596 16.762 16.9096V2.30957C16.3256 1.85957 15.8529 1.55957 15.3074 1.30957ZM15.3074 14.8096C14.5074 14.4596 13.6347 14.3096 12.762 14.3096C11.5256 14.3096 9.74378 14.9596 8.76196 15.8096V4.30957C9.74378 3.45957 11.5256 2.80957 12.762 2.80957C13.6347 2.80957 14.5074 2.95957 15.3074 3.30957V14.8096Z" fill="black"/>
</g>
<defs>
<clipPath id="clip0_342_10374">
<rect width="16" height="17" fill="white"/>
</clipPath>
</defs>
</svg>
