<svg width="13" height="13" viewBox="0 0 13 13" fill="none" xmlns="http://www.w3.org/2000/svg">
<g clip-path="url(#clip0_342_10566)">
<path d="M12.4372 1.00149C11.7813 0.733847 11.0604 0.619141 10.369 0.619141C9.21675 0.619141 7.97584 0.925023 7.11902 1.7662C6.2622 0.925023 5.02129 0.619141 3.86902 0.619141C2.71675 0.619141 1.47584 0.925023 0.619019 1.7662V12.9691C0.619019 13.1603 0.766746 13.3515 0.914473 13.3515C0.973564 13.3515 1.00311 13.3133 1.0622 13.3133C1.85993 12.8162 3.0122 12.4721 3.86902 12.4721C5.02129 12.4721 6.2622 12.778 7.11902 13.6191C7.91675 12.9691 9.36447 12.4721 10.369 12.4721C11.344 12.4721 12.3486 12.7015 13.1758 13.275C13.2349 13.3133 13.2645 13.3133 13.3236 13.3133C13.4713 13.3133 13.619 13.1221 13.619 12.9309V1.7662C13.2645 1.42208 12.8804 1.19267 12.4372 1.00149ZM12.4372 11.325C11.7872 11.0574 11.0781 10.9427 10.369 10.9427C9.36447 10.9427 7.91675 11.4397 7.11902 12.0897V3.29561C7.91675 2.64561 9.36447 2.14855 10.369 2.14855C11.0781 2.14855 11.7872 2.26326 12.4372 2.53091V11.325Z" fill="black"/>
</g>
<defs>
<clipPath id="clip0_342_10566">
<rect width="13" height="13" fill="white"/>
</clipPath>
</defs>
</svg>
