<svg width="16" height="17" viewBox="0 0 16 17" fill="none" xmlns="http://www.w3.org/2000/svg">
<g clip-path="url(#clip0_342_10539)">
<path d="M15.3074 1.30957C14.5001 0.95957 13.6128 0.80957 12.7619 0.80957C11.3437 0.80957 9.81645 1.20957 8.7619 2.30957C7.70736 1.20957 6.18008 0.80957 4.7619 0.80957C3.34372 0.80957 1.81645 1.20957 0.761902 2.30957V16.9596C0.761902 17.2096 0.94372 17.4596 1.12554 17.4596C1.19827 17.4596 1.23463 17.4096 1.30736 17.4096C2.28917 16.7596 3.70736 16.3096 4.7619 16.3096C6.18008 16.3096 7.70736 16.7096 8.7619 17.8096C9.74372 16.9596 11.5255 16.3096 12.7619 16.3096C13.9619 16.3096 15.1983 16.6096 16.2164 17.3596C16.2892 17.4096 16.3255 17.4096 16.3983 17.4096C16.5801 17.4096 16.7619 17.1596 16.7619 16.9096V2.30957C16.3255 1.85957 15.8528 1.55957 15.3074 1.30957ZM15.3074 14.8096C14.5074 14.4596 13.6346 14.3096 12.7619 14.3096C11.5255 14.3096 9.74372 14.9596 8.7619 15.8096V4.30957C9.74372 3.45957 11.5255 2.80957 12.7619 2.80957C13.6346 2.80957 14.5074 2.95957 15.3074 3.30957V14.8096Z" fill="black"/>
</g>
<defs>
<clipPath id="clip0_342_10539">
<rect width="16" height="17" fill="white"/>
</clipPath>
</defs>
</svg>
