<svg width="13" height="13" viewBox="0 0 13 13" fill="none" xmlns="http://www.w3.org/2000/svg">
<g clip-path="url(#clip0_342_10448)">
<path d="M12.4373 1.00149C11.7814 0.733847 11.0605 0.619141 10.3691 0.619141C9.21687 0.619141 7.97596 0.925023 7.11914 1.7662C6.26232 0.925023 5.02141 0.619141 3.86914 0.619141C2.71687 0.619141 1.47596 0.925023 0.619141 1.7662V12.9691C0.619141 13.1603 0.766868 13.3515 0.914595 13.3515C0.973686 13.3515 1.00323 13.3133 1.06232 13.3133C1.86005 12.8162 3.01232 12.4721 3.86914 12.4721C5.02141 12.4721 6.26232 12.778 7.11914 13.6191C7.91687 12.9691 9.36459 12.4721 10.3691 12.4721C11.3441 12.4721 12.3487 12.7015 13.176 13.275C13.235 13.3133 13.2646 13.3133 13.3237 13.3133C13.4714 13.3133 13.6191 13.1221 13.6191 12.9309V1.7662C13.2646 1.42208 12.8805 1.19267 12.4373 1.00149ZM12.4373 11.325C11.7873 11.0574 11.0782 10.9427 10.3691 10.9427C9.36459 10.9427 7.91687 11.4397 7.11914 12.0897V3.29561C7.91687 2.64561 9.36459 2.14855 10.3691 2.14855C11.0782 2.14855 11.7873 2.26326 12.4373 2.53091V11.325Z" fill="black"/>
</g>
<defs>
<clipPath id="clip0_342_10448">
<rect width="13" height="13" fill="white"/>
</clipPath>
</defs>
</svg>
