<svg width="9" height="7" viewBox="0 0 9 7" fill="none" xmlns="http://www.w3.org/2000/svg">
<g clip-path="url(#clip0_342_10646)">
<path d="M8.61028 0.539256C8.15619 0.395139 7.6571 0.333374 7.17847 0.333374C6.38074 0.333374 5.52165 0.49808 4.92847 0.951021C4.33528 0.49808 3.47619 0.333374 2.67847 0.333374C1.88074 0.333374 1.02165 0.49808 0.428467 0.951021V6.98337C0.428467 7.08632 0.53074 7.18926 0.633012 7.18926C0.673921 7.18926 0.694376 7.16867 0.735285 7.16867C1.28756 6.90102 2.08528 6.71573 2.67847 6.71573C3.47619 6.71573 4.33528 6.88043 4.92847 7.33337C5.48074 6.98337 6.48301 6.71573 7.17847 6.71573C7.85347 6.71573 8.54892 6.83926 9.12165 7.14808C9.16256 7.16867 9.18301 7.16867 9.22392 7.16867C9.32619 7.16867 9.42847 7.06573 9.42847 6.96279V0.951021C9.18301 0.765727 8.9171 0.642198 8.61028 0.539256ZM8.61028 6.09808C8.16028 5.95396 7.66938 5.8922 7.17847 5.8922C6.48301 5.8922 5.48074 6.15984 4.92847 6.50984V1.77455C5.48074 1.42455 6.48301 1.1569 7.17847 1.1569C7.66938 1.1569 8.16028 1.21867 8.61028 1.36279V6.09808Z" fill="black"/>
</g>
<defs>
<clipPath id="clip0_342_10646">
<rect width="9" height="7" fill="white"/>
</clipPath>
</defs>
</svg>
