<svg width="49" height="20" viewBox="0 0 49 20" fill="none" xmlns="http://www.w3.org/2000/svg">
<g clip-path="url(#clip0_342_10473)">
<path d="M31.0801 2L37.5621 10.101C37.8458 10.4558 38.0003 10.8967 38.0001 11.351V18L40.0001 16.5V11.35C40.0001 10.896 40.1546 10.4556 40.4381 10.101L46.9201 2H31.0811H31.0801ZM31.0801 0H46.9201C47.2969 4.70007e-05 47.666 0.106524 47.9849 0.307166C48.3038 0.507808 48.5595 0.794454 48.7227 1.13409C48.8858 1.47372 48.9497 1.85253 48.9069 2.22687C48.8642 2.60122 48.7166 2.95588 48.4811 3.25L42.0001 11.35V16.5C42.0001 16.8105 41.9278 17.1167 41.7889 17.3944C41.6501 17.6721 41.4485 17.9137 41.2001 18.1L39.2001 19.6C38.9029 19.8229 38.5496 19.9586 38.1797 19.9919C37.8098 20.0253 37.4379 19.955 37.1056 19.7889C36.7734 19.6227 36.494 19.3674 36.2988 19.0515C36.1035 18.7355 36.0001 18.3714 36.0001 18V11.35L29.5191 3.25C29.2836 2.95588 29.136 2.60122 29.0932 2.22687C29.0505 1.85253 29.1144 1.47372 29.2775 1.13409C29.4406 0.794454 29.6964 0.507808 30.0153 0.307166C30.3342 0.106524 30.7033 4.70007e-05 31.0801 0Z" fill="#333333"/>
<path d="M15.9 18.3L10.3 12.7C9.8 13.1 9.225 13.4167 8.575 13.65C7.925 13.8833 7.23333 14 6.5 14C4.68333 14 3.146 13.3707 1.888 12.112C0.63 10.8533 0.000666667 9.316 0 7.5C0 5.68333 0.629333 4.146 1.888 2.888C3.14667 1.63 4.684 1.00067 6.5 1C8.31667 1 9.854 1.62933 11.112 2.888C12.37 4.14667 12.9993 5.684 13 7.5C13 8.23333 12.8833 8.925 12.65 9.575C12.4167 10.225 12.1 10.8 11.7 11.3L17.325 16.925C17.5083 17.1083 17.6 17.3333 17.6 17.6C17.6 17.8667 17.5 18.1 17.3 18.3C17.1167 18.4833 16.8833 18.575 16.6 18.575C16.3167 18.575 16.0833 18.4833 15.9 18.3ZM6.5 12C7.75 12 8.81267 11.5623 9.688 10.687C10.5633 9.81167 11.0007 8.74933 11 7.5C11 6.25 10.5623 5.18733 9.687 4.312C8.81167 3.43667 7.74933 2.99933 6.5 3C5.25 3 4.18733 3.43767 3.312 4.313C2.43667 5.18833 1.99933 6.25067 2 7.5C2 8.75 2.43767 9.81267 3.313 10.688C4.18833 11.5633 5.25067 12.0007 6.5 12Z" fill="#333333"/>
</g>
<defs>
<clipPath id="clip0_342_10473">
<rect width="48.9198" height="20" fill="white"/>
</clipPath>
</defs>
</svg>
