<svg width="13" height="13" viewBox="0 0 13 13" fill="none" xmlns="http://www.w3.org/2000/svg">
<g clip-path="url(#clip0_342_10381)">
<path d="M12.4372 1.00137C11.7813 0.733724 11.0604 0.619019 10.369 0.619019C9.21675 0.619019 7.97584 0.924901 7.11902 1.76608C6.2622 0.924901 5.02129 0.619019 3.86902 0.619019C2.71675 0.619019 1.47584 0.924901 0.619019 1.76608V12.969C0.619019 13.1602 0.766746 13.3514 0.914473 13.3514C0.973564 13.3514 1.00311 13.3131 1.0622 13.3131C1.85993 12.8161 3.0122 12.472 3.86902 12.472C5.02129 12.472 6.2622 12.7778 7.11902 13.619C7.91675 12.969 9.36447 12.472 10.369 12.472C11.344 12.472 12.3486 12.7014 13.1758 13.2749C13.2349 13.3131 13.2645 13.3131 13.3236 13.3131C13.4713 13.3131 13.619 13.122 13.619 12.9308V1.76608C13.2645 1.42196 12.8804 1.19255 12.4372 1.00137ZM12.4372 11.3249C11.7872 11.0573 11.0781 10.9425 10.369 10.9425C9.36447 10.9425 7.91675 11.4396 7.11902 12.0896V3.29549C7.91675 2.64549 9.36447 2.14843 10.369 2.14843C11.0781 2.14843 11.7872 2.26314 12.4372 2.53078V11.3249Z" fill="black"/>
</g>
<defs>
<clipPath id="clip0_342_10381">
<rect width="13" height="13" fill="white"/>
</clipPath>
</defs>
</svg>
