<svg width="50" height="20" viewBox="0 0 50 20" fill="none" xmlns="http://www.w3.org/2000/svg">
<g clip-path="url(#clip0_342_10415)">
<path d="M31.7353 2L38.2173 10.101C38.5011 10.4558 38.6556 10.8967 38.6553 11.351V18L40.6553 16.5V11.35C40.6554 10.896 40.8098 10.4556 41.0933 10.101L47.5753 2H31.7363H31.7353ZM31.7353 0H47.5753C47.9521 4.70007e-05 48.3212 0.106524 48.6401 0.307166C48.9591 0.507808 49.2148 0.794454 49.3779 1.13409C49.5411 1.47372 49.6049 1.85253 49.5622 2.22687C49.5194 2.60122 49.3718 2.95588 49.1363 3.25L42.6553 11.35V16.5C42.6553 16.8105 42.5831 17.1167 42.4442 17.3944C42.3053 17.6721 42.1037 17.9137 41.8553 18.1L39.8553 19.6C39.5582 19.8229 39.2049 19.9586 38.835 19.9919C38.465 20.0253 38.0931 19.955 37.7609 19.7889C37.4287 19.6227 37.1493 19.3674 36.954 19.0515C36.7588 18.7355 36.6553 18.3714 36.6553 18V11.35L30.1743 3.25C29.9389 2.95588 29.7912 2.60122 29.7485 2.22687C29.7058 1.85253 29.7696 1.47372 29.9328 1.13409C30.0959 0.794454 30.3516 0.507808 30.6706 0.307166C30.9895 0.106524 31.3586 4.70007e-05 31.7353 0Z" fill="#333333"/>
<path d="M16.5553 18.3L10.9553 12.7C10.4553 13.1 9.88027 13.4167 9.23027 13.65C8.58027 13.8833 7.88861 14 7.15527 14C5.33861 14 3.80127 13.3707 2.54327 12.112C1.28527 10.8533 0.65594 9.316 0.655273 7.5C0.655273 5.68333 1.28461 4.146 2.54327 2.888C3.80194 1.63 5.33927 1.00067 7.15527 1C8.97194 1 10.5093 1.62933 11.7673 2.888C13.0253 4.14667 13.6546 5.684 13.6553 7.5C13.6553 8.23333 13.5386 8.925 13.3053 9.575C13.0719 10.225 12.7553 10.8 12.3553 11.3L17.9803 16.925C18.1636 17.1083 18.2553 17.3333 18.2553 17.6C18.2553 17.8667 18.1553 18.1 17.9553 18.3C17.7719 18.4833 17.5386 18.575 17.2553 18.575C16.9719 18.575 16.7386 18.4833 16.5553 18.3ZM7.15527 12C8.40527 12 9.46794 11.5623 10.3433 10.687C11.2186 9.81167 11.6559 8.74933 11.6553 7.5C11.6553 6.25 11.2176 5.18733 10.3423 4.312C9.46694 3.43667 8.40461 2.99933 7.15527 3C5.90527 3 4.84261 3.43767 3.96727 4.313C3.09194 5.18833 2.65461 6.25067 2.65527 7.5C2.65527 8.75 3.09294 9.81267 3.96827 10.688C4.84361 11.5633 5.90594 12.0007 7.15527 12Z" fill="#333333"/>
</g>
<defs>
<clipPath id="clip0_342_10415">
<rect width="48.9198" height="20" fill="white" transform="translate(0.655273)"/>
</clipPath>
</defs>
</svg>
