<svg width="54" height="24" viewBox="0 0 54 24" fill="none" xmlns="http://www.w3.org/2000/svg">
<g clip-path="url(#clip0_222_10254)">
<path d="M32.4191 2.4L40.2604 12.1212C40.6037 12.547 40.7905 13.076 40.7903 13.6212V21.6L43.2097 19.8V13.62C43.2097 13.0752 43.3966 12.5467 43.7396 12.1212L51.5809 2.4H32.4203H32.4191ZM32.4191 0H51.5809C52.0367 5.64008e-05 52.4832 0.127828 52.869 0.368599C53.2548 0.609369 53.5641 0.953344 53.7615 1.3609C53.9588 1.76846 54.0361 2.22303 53.9844 2.67225C53.9327 3.12146 53.7541 3.54705 53.4692 3.9L45.6291 13.62V19.8C45.6291 20.1726 45.5417 20.5401 45.3737 20.8733C45.2057 21.2066 44.9618 21.4964 44.6614 21.72L42.2419 23.52C41.8825 23.7874 41.4551 23.9503 41.0076 23.9903C40.5601 24.0303 40.1102 23.946 39.7083 23.7466C39.3064 23.5473 38.9684 23.2409 38.7322 22.8618C38.496 22.4826 38.3709 22.0457 38.3709 21.6V13.62L30.5308 3.9C30.2459 3.54705 30.0673 3.12146 30.0156 2.67225C29.9639 2.22303 30.0412 1.76846 30.2385 1.3609C30.4359 0.953344 30.7452 0.609369 31.131 0.368599C31.5168 0.127828 31.9633 5.64008e-05 32.4191 0Z" fill="#333333"/>
<path d="M21.6818 23.6245L14.0455 15.9772C13.3636 16.5235 12.5795 16.9559 11.6932 17.2745C10.8068 17.5932 9.86364 17.7525 8.86364 17.7525C6.38636 17.7525 4.29 16.8931 2.57455 15.1743C0.859091 13.4555 0.000909091 11.3561 0 8.87624C0 6.39545 0.858182 4.2961 2.57455 2.57821C4.29091 0.860313 6.38727 0.000910384 8.86364 0C11.3409 0 13.4373 0.859403 15.1527 2.57821C16.8682 4.29701 17.7264 6.39636 17.7273 8.87624C17.7273 9.87767 17.5682 10.8222 17.25 11.7098C16.9318 12.5974 16.5 13.3826 15.9545 14.0654L23.625 21.7468C23.875 21.9972 24 22.3044 24 22.6686C24 23.0327 23.8636 23.3513 23.5909 23.6245C23.3409 23.8748 23.0227 24 22.6364 24C22.25 24 21.9318 23.8748 21.6818 23.6245ZM8.86364 15.0213C10.5682 15.0213 12.0173 14.4237 13.2109 13.2283C14.4045 12.033 15.0009 10.5823 15 8.87624C15 7.16927 14.4032 5.71812 13.2095 4.52279C12.0159 3.32745 10.5673 2.73024 8.86364 2.73115C7.15909 2.73115 5.71 3.32882 4.51636 4.52415C3.32273 5.71949 2.72636 7.17018 2.72727 8.87624C2.72727 10.5832 3.32409 12.0344 4.51773 13.2297C5.71136 14.425 7.16 15.0222 8.86364 15.0213Z" fill="#333333"/>
</g>
<defs>
<clipPath id="clip0_222_10254">
<rect width="54" height="24" fill="white"/>
</clipPath>
</defs>
</svg>
