<svg width="90" height="90" viewBox="0 0 90 90" fill="none" xmlns="http://www.w3.org/2000/svg">
<g clip-path="url(#clip0_342_10616)">
<path fill-rule="evenodd" clip-rule="evenodd" d="M61.3635 32.7272C61.3635 37.0671 59.6395 41.2292 56.5707 44.298C53.5019 47.3668 49.3398 49.0908 44.9999 49.0908C40.66 49.0908 36.4978 47.3668 33.429 44.298C30.3603 41.2292 28.6362 37.0671 28.6362 32.7272C28.6362 28.3873 30.3603 24.2251 33.429 21.1563C36.4978 18.0875 40.66 16.3635 44.9999 16.3635C49.3398 16.3635 53.5019 18.0875 56.5707 21.1563C59.6395 24.2251 61.3635 28.3873 61.3635 32.7272ZM53.1817 32.7272C53.1817 34.8971 52.3197 36.9782 50.7853 38.5126C49.2509 40.047 47.1698 40.909 44.9999 40.909C42.8299 40.909 40.7488 40.047 39.2144 38.5126C37.6801 36.9782 36.818 34.8971 36.818 32.7272C36.818 30.5572 37.6801 28.4761 39.2144 26.9417C40.7488 25.4074 42.8299 24.5453 44.9999 24.5453C47.1698 24.5453 49.2509 25.4074 50.7853 26.9417C52.3197 28.4761 53.1817 30.5572 53.1817 32.7272Z" fill="white"/>
<path fill-rule="evenodd" clip-rule="evenodd" d="M45 0C20.1477 0 0 20.1477 0 45C0 69.8523 20.1477 90 45 90C69.8523 90 90 69.8523 90 45C90 20.1477 69.8523 0 45 0ZM8.18182 45C8.18182 53.55 11.0986 61.4209 15.9873 67.6718C19.4205 63.1632 23.8496 59.5094 28.9286 56.9958C34.0076 54.4822 39.599 53.1769 45.2659 53.1818C50.8595 53.1765 56.3806 54.4481 61.4084 56.8996C66.4361 59.3511 70.838 62.9179 74.2786 67.3282C77.8232 62.6793 80.2098 57.2532 81.2409 51.4988C82.2721 45.7444 81.9181 39.8272 80.2084 34.2368C78.4986 28.6463 75.4823 23.5434 71.4088 19.3502C67.3354 15.1569 62.3219 11.994 56.7834 10.123C51.2448 8.25201 45.3404 7.72679 39.5585 8.5908C33.7767 9.4548 28.2837 11.6832 23.5341 15.0916C18.7844 18.5 14.9147 22.9904 12.245 28.1913C9.57538 33.3921 8.18256 39.154 8.18182 45ZM45 81.8182C36.548 81.8309 28.3511 78.9232 21.7964 73.5873C24.4347 69.8103 27.9464 66.7265 32.0326 64.5983C36.1188 62.47 40.6587 61.3604 45.2659 61.3636C49.8157 61.36 54.3006 62.4419 58.3483 64.5195C62.396 66.597 65.8897 69.6103 68.5391 73.3091C61.9335 78.8183 53.6015 81.8302 45 81.8182Z" fill="white"/>
</g>
<defs>
<clipPath id="clip0_342_10616">
<rect width="90" height="90" fill="white"/>
</clipPath>
</defs>
</svg>
