<svg width="15" height="13" viewBox="0 0 15 13" fill="none" xmlns="http://www.w3.org/2000/svg">
<path d="M12.325 7.13743C12.325 7.13743 12.2542 7.13743 12.1833 7.13743C12.1125 7.13743 12.0417 7.13743 11.9708 7.20827L11.4042 7.77493C11.3333 7.84577 11.3333 7.9166 11.3333 7.98744V10.2541C11.3333 10.6791 11.1917 10.9624 10.9083 11.2458C10.625 11.5291 10.2708 11.6708 9.91667 11.6708H2.55C2.125 11.6708 1.84167 11.5291 1.55833 11.2458C1.275 10.9624 1.13333 10.6083 1.13333 10.2541V2.8166C1.13333 2.46243 1.275 2.10827 1.55833 1.82493C1.84167 1.5416 2.19583 1.39993 2.55 1.39993H9.91667C10.0583 1.39993 10.2 1.39993 10.3417 1.47077C10.4125 1.47077 10.4125 1.47077 10.4125 1.47077C10.4833 1.47077 10.5542 1.47077 10.625 1.39993L11.05 0.974935C11.1208 0.904101 11.1208 0.833268 11.1208 0.691601C11.1208 0.620768 11.05 0.549935 10.9792 0.479102C10.6958 0.337435 10.3417 0.266602 9.91667 0.266602H2.55C1.84167 0.266602 1.275 0.549935 0.779167 1.04577C0.283333 1.5416 0 2.10827 0 2.8166V10.1833C0 10.8916 0.283333 11.4583 0.779167 11.9541C1.275 12.4499 1.9125 12.7333 2.55 12.7333H9.91667C10.625 12.7333 11.1917 12.4499 11.6875 11.9541C12.1833 11.4583 12.4667 10.8208 12.4667 10.1833V7.34993C12.4667 7.20827 12.3958 7.13743 12.325 7.13743Z" fill="url(#paint0_linear_342_9893)"/>
<path d="M14.5208 2.03742L13.5291 1.04575C13.3874 0.904085 13.2458 0.833252 13.0333 0.833252C12.8208 0.833252 12.6791 0.904085 12.5374 1.04575L6.79993 6.78325L4.46243 4.44575C4.32077 4.30409 4.1791 4.23325 3.9666 4.23325C3.7541 4.23325 3.61243 4.30409 3.47077 4.44575L2.4791 5.43742C2.33743 5.57909 2.2666 5.72075 2.2666 5.93325C2.2666 6.14575 2.33743 6.28742 2.4791 6.42908L6.3041 10.2541C6.44577 10.3958 6.58743 10.4666 6.79993 10.4666C7.01243 10.4666 7.1541 10.3958 7.29577 10.2541L14.5208 3.02909C14.6624 2.88742 14.7333 2.74575 14.7333 2.53325C14.7333 2.32075 14.6624 2.17909 14.5208 2.03742Z" fill="url(#paint1_linear_342_9893)"/>
<defs>
<linearGradient id="paint0_linear_342_9893" x1="0" y1="6.49994" x2="12.4667" y2="6.49994" gradientUnits="userSpaceOnUse">
<stop stop-color="#48B3C9"/>
<stop offset="1" stop-color="#005DC7"/>
</linearGradient>
<linearGradient id="paint1_linear_342_9893" x1="2.2666" y1="5.64992" x2="14.7333" y2="5.64992" gradientUnits="userSpaceOnUse">
<stop stop-color="#48B3C9"/>
<stop offset="1" stop-color="#005DC7"/>
</linearGradient>
</defs>
</svg>
