<svg width="329" height="59" viewBox="0 0 329 59" fill="none" xmlns="http://www.w3.org/2000/svg">
<g filter="url(#filter0_d_342_10801)">
<path d="M4.9934 12.9873C4.99395 6.35989 10.367 0.987744 16.9944 0.988286L312.994 1.01249C319.622 1.01303 324.994 6.38605 324.993 13.0135L324.991 38.0135C324.991 44.6409 319.618 50.013 312.99 50.0125L16.9904 49.9883C10.363 49.9877 4.99082 44.6147 4.99136 37.9873L4.9934 12.9873Z" fill="white"/>
</g>
<g filter="url(#filter1_d_342_10801)">
<circle cx="31.4925" cy="25.4895" r="17.5" fill="white"/>
</g>
<g clip-path="url(#clip0_342_10801)">
<path d="M26.4916 35.3225C26.9519 35.3225 27.325 34.9495 27.325 34.4892C27.3251 34.029 26.952 33.6559 26.4918 33.6558C26.0315 33.6558 25.6584 34.0289 25.6584 34.4891C25.6583 34.9493 26.0314 35.3225 26.4916 35.3225Z" stroke="#9D9D9D" stroke-width="2" stroke-linecap="round" stroke-linejoin="round"/>
<path d="M35.6584 35.3232C36.1186 35.3233 36.4918 34.9502 36.4918 34.49C36.4918 34.0297 36.1188 33.6566 35.6585 33.6566C35.1983 33.6565 34.8252 34.0296 34.8251 34.4898C34.8251 34.9501 35.1982 35.3232 35.6584 35.3232Z" stroke="#9D9D9D" stroke-width="2" stroke-linecap="round" stroke-linejoin="round"/>
<path d="M19.8264 17.822L23.1597 17.8223L25.3922 28.9808C25.4683 29.3645 25.677 29.7091 25.9817 29.9544C26.2864 30.1997 26.6676 30.3301 27.0587 30.3226L35.1587 30.3233C35.5498 30.3308 35.9311 30.2005 36.2358 29.9553C36.5405 29.71 36.7493 29.3654 36.8255 28.9817L38.1594 21.9902L23.9927 21.989" stroke="#9D9D9D" stroke-width="2" stroke-linecap="round" stroke-linejoin="round"/>
</g>
<defs>
<filter id="filter0_d_342_10801" x="0.991455" y="0.988281" width="328.002" height="57.0242" filterUnits="userSpaceOnUse" color-interpolation-filters="sRGB">
<feFlood flood-opacity="0" result="BackgroundImageFix"/>
<feColorMatrix in="SourceAlpha" type="matrix" values="0 0 0 0 0 0 0 0 0 0 0 0 0 0 0 0 0 0 127 0" result="hardAlpha"/>
<feOffset dy="4"/>
<feGaussianBlur stdDeviation="2"/>
<feComposite in2="hardAlpha" operator="out"/>
<feColorMatrix type="matrix" values="0 0 0 0 0.591667 0 0 0 0 0.591667 0 0 0 0 0.591667 0 0 0 0.25 0"/>
<feBlend mode="normal" in2="BackgroundImageFix" result="effect1_dropShadow_342_10801"/>
<feBlend mode="normal" in="SourceGraphic" in2="effect1_dropShadow_342_10801" result="shape"/>
</filter>
<filter id="filter1_d_342_10801" x="9.99243" y="7.9895" width="43" height="43" filterUnits="userSpaceOnUse" color-interpolation-filters="sRGB">
<feFlood flood-opacity="0" result="BackgroundImageFix"/>
<feColorMatrix in="SourceAlpha" type="matrix" values="0 0 0 0 0 0 0 0 0 0 0 0 0 0 0 0 0 0 127 0" result="hardAlpha"/>
<feOffset dy="4"/>
<feGaussianBlur stdDeviation="2"/>
<feComposite in2="hardAlpha" operator="out"/>
<feColorMatrix type="matrix" values="0 0 0 0 0.8 0 0 0 0 0.8 0 0 0 0 0.8 0 0 0 0.25 0"/>
<feBlend mode="normal" in2="BackgroundImageFix" result="effect1_dropShadow_342_10801"/>
<feBlend mode="normal" in="SourceGraphic" in2="effect1_dropShadow_342_10801" result="shape"/>
</filter>
<clipPath id="clip0_342_10801">
<rect width="20" height="20" fill="white" transform="translate(18.9932 16.9885)"/>
</clipPath>
</defs>
</svg>
