<svg width="18" height="12" viewBox="0 0 18 12" fill="none" xmlns="http://www.w3.org/2000/svg">
<path fill-rule="evenodd" clip-rule="evenodd" d="M16.3996 0.666672H15.3996C14.8473 0.666672 14.3996 1.11439 14.3996 1.66667V10.3333C14.3996 10.8856 14.8473 11.3333 15.3996 11.3333H16.3996C16.9519 11.3333 17.3996 10.8856 17.3996 10.3333V1.66667C17.3996 1.11439 16.9519 0.666672 16.3996 0.666672ZM10.7329 3.00001H11.7329C12.2852 3.00001 12.7329 3.44772 12.7329 4.00001V10.3333C12.7329 10.8856 12.2852 11.3333 11.7329 11.3333H10.7329C10.1806 11.3333 9.73293 10.8856 9.73293 10.3333V4.00001C9.73293 3.44772 10.1806 3.00001 10.7329 3.00001ZM7.06626 5.33334H6.06626C5.51398 5.33334 5.06626 5.78105 5.06626 6.33334V10.3333C5.06626 10.8856 5.51398 11.3333 6.06626 11.3333H7.06626C7.61855 11.3333 8.06626 10.8856 8.06626 10.3333V6.33334C8.06626 5.78105 7.61855 5.33334 7.06626 5.33334ZM2.3996 7.33334H1.3996C0.847312 7.33334 0.399597 7.78105 0.399597 8.33334V10.3333C0.399597 10.8856 0.847312 11.3333 1.3996 11.3333H2.3996C2.95188 11.3333 3.3996 10.8856 3.3996 10.3333V8.33334C3.3996 7.78105 2.95188 7.33334 2.3996 7.33334Z" fill="#151619"/>
</svg>
