<svg width="18" height="12" viewBox="0 0 18 12" fill="none" xmlns="http://www.w3.org/2000/svg">
<path fill-rule="evenodd" clip-rule="evenodd" d="M16.3997 0.666687H15.3997C14.8474 0.666687 14.3997 1.1144 14.3997 1.66669V10.3334C14.3997 10.8856 14.8474 11.3334 15.3997 11.3334H16.3997C16.9519 11.3334 17.3997 10.8856 17.3997 10.3334V1.66669C17.3997 1.1144 16.9519 0.666687 16.3997 0.666687ZM10.733 3.00002H11.733C12.2853 3.00002 12.733 3.44774 12.733 4.00002V10.3334C12.733 10.8856 12.2853 11.3334 11.733 11.3334H10.733C10.1807 11.3334 9.73299 10.8856 9.73299 10.3334V4.00002C9.73299 3.44774 10.1807 3.00002 10.733 3.00002ZM7.06632 5.33335H6.06632C5.51404 5.33335 5.06632 5.78107 5.06632 6.33335V10.3334C5.06632 10.8856 5.51404 11.3334 6.06632 11.3334H7.06632C7.61861 11.3334 8.06632 10.8856 8.06632 10.3334V6.33335C8.06632 5.78107 7.61861 5.33335 7.06632 5.33335ZM2.39966 7.33335H1.39966C0.847373 7.33335 0.399658 7.78107 0.399658 8.33335V10.3334C0.399658 10.8856 0.847373 11.3334 1.39966 11.3334H2.39966C2.95194 11.3334 3.39966 10.8856 3.39966 10.3334V8.33335C3.39966 7.78107 2.95194 7.33335 2.39966 7.33335Z" fill="#151619"/>
</svg>
