<svg width="18" height="12" viewBox="0 0 18 12" fill="none" xmlns="http://www.w3.org/2000/svg">
<path fill-rule="evenodd" clip-rule="evenodd" d="M16.3091 0.666687H15.3091C14.7569 0.666687 14.3091 1.1144 14.3091 1.66669V10.3334C14.3091 10.8856 14.7569 11.3334 15.3091 11.3334H16.3091C16.8614 11.3334 17.3091 10.8856 17.3091 10.3334V1.66669C17.3091 1.1144 16.8614 0.666687 16.3091 0.666687ZM10.6425 3.00002H11.6425C12.1948 3.00002 12.6425 3.44774 12.6425 4.00002V10.3334C12.6425 10.8856 12.1948 11.3334 11.6425 11.3334H10.6425C10.0902 11.3334 9.64248 10.8856 9.64248 10.3334V4.00002C9.64248 3.44774 10.0902 3.00002 10.6425 3.00002ZM6.97581 5.33335H5.97581C5.42352 5.33335 4.97581 5.78107 4.97581 6.33335V10.3334C4.97581 10.8856 5.42352 11.3334 5.97581 11.3334H6.97581C7.52809 11.3334 7.97581 10.8856 7.97581 10.3334V6.33335C7.97581 5.78107 7.52809 5.33335 6.97581 5.33335ZM2.30914 7.33335H1.30914C0.756858 7.33335 0.309143 7.78107 0.309143 8.33335V10.3334C0.309143 10.8856 0.756858 11.3334 1.30914 11.3334H2.30914C2.86143 11.3334 3.30914 10.8856 3.30914 10.3334V8.33335C3.30914 7.78107 2.86143 7.33335 2.30914 7.33335Z" fill="#151619"/>
</svg>
