<svg width="18" height="12" viewBox="0 0 18 12" fill="none" xmlns="http://www.w3.org/2000/svg">
<path fill-rule="evenodd" clip-rule="evenodd" d="M16.0151 0.666687H15.0151C14.4629 0.666687 14.0151 1.1144 14.0151 1.66669V10.3334C14.0151 10.8856 14.4629 11.3334 15.0151 11.3334H16.0151C16.5674 11.3334 17.0151 10.8856 17.0151 10.3334V1.66669C17.0151 1.1144 16.5674 0.666687 16.0151 0.666687ZM10.3485 3.00002H11.3485C11.9008 3.00002 12.3485 3.44774 12.3485 4.00002V10.3334C12.3485 10.8856 11.9008 11.3334 11.3485 11.3334H10.3485C9.79618 11.3334 9.34847 10.8856 9.34847 10.3334V4.00002C9.34847 3.44774 9.79618 3.00002 10.3485 3.00002ZM6.6818 5.33335H5.6818C5.12952 5.33335 4.6818 5.78107 4.6818 6.33335V10.3334C4.6818 10.8856 5.12952 11.3334 5.6818 11.3334H6.6818C7.23409 11.3334 7.6818 10.8856 7.6818 10.3334V6.33335C7.6818 5.78107 7.23409 5.33335 6.6818 5.33335ZM2.01514 7.33335H1.01514C0.462852 7.33335 0.0151367 7.78107 0.0151367 8.33335V10.3334C0.0151367 10.8856 0.462852 11.3334 1.01514 11.3334H2.01514C2.56742 11.3334 3.01514 10.8856 3.01514 10.3334V8.33335C3.01514 7.78107 2.56742 7.33335 2.01514 7.33335Z" fill="#151619"/>
</svg>
