<svg width="18" height="12" viewBox="0 0 18 12" fill="none" xmlns="http://www.w3.org/2000/svg">
<path fill-rule="evenodd" clip-rule="evenodd" d="M16.3997 0.666672H15.3997C14.8474 0.666672 14.3997 1.11439 14.3997 1.66667V10.3333C14.3997 10.8856 14.8474 11.3333 15.3997 11.3333H16.3997C16.9519 11.3333 17.3997 10.8856 17.3997 10.3333V1.66667C17.3997 1.11439 16.9519 0.666672 16.3997 0.666672ZM10.733 3.00001H11.733C12.2853 3.00001 12.733 3.44772 12.733 4.00001V10.3333C12.733 10.8856 12.2853 11.3333 11.733 11.3333H10.733C10.1807 11.3333 9.73299 10.8856 9.73299 10.3333V4.00001C9.73299 3.44772 10.1807 3.00001 10.733 3.00001ZM7.06632 5.33334H6.06632C5.51404 5.33334 5.06632 5.78105 5.06632 6.33334V10.3333C5.06632 10.8856 5.51404 11.3333 6.06632 11.3333H7.06632C7.61861 11.3333 8.06632 10.8856 8.06632 10.3333V6.33334C8.06632 5.78105 7.61861 5.33334 7.06632 5.33334ZM2.39966 7.33334H1.39966C0.847373 7.33334 0.399658 7.78105 0.399658 8.33334V10.3333C0.399658 10.8856 0.847373 11.3333 1.39966 11.3333H2.39966C2.95194 11.3333 3.39966 10.8856 3.39966 10.3333V8.33334C3.39966 7.78105 2.95194 7.33334 2.39966 7.33334Z" fill="#151619"/>
</svg>
