<svg width="18" height="12" viewBox="0 0 18 12" fill="none" xmlns="http://www.w3.org/2000/svg">
<path fill-rule="evenodd" clip-rule="evenodd" d="M16.377 0.666664H15.377C14.8247 0.666664 14.377 1.11438 14.377 1.66666V10.3333C14.377 10.8856 14.8247 11.3333 15.377 11.3333H16.377C16.9293 11.3333 17.377 10.8856 17.377 10.3333V1.66666C17.377 1.11438 16.9293 0.666664 16.377 0.666664ZM10.7103 3H11.7103C12.2626 3 12.7103 3.44771 12.7103 4V10.3333C12.7103 10.8856 12.2626 11.3333 11.7103 11.3333H10.7103C10.158 11.3333 9.71032 10.8856 9.71032 10.3333V4C9.71032 3.44771 10.158 3 10.7103 3ZM7.04365 5.33333H6.04365C5.49137 5.33333 5.04365 5.78105 5.04365 6.33333V10.3333C5.04365 10.8856 5.49137 11.3333 6.04365 11.3333H7.04365C7.59593 11.3333 8.04365 10.8856 8.04365 10.3333V6.33333C8.04365 5.78105 7.59593 5.33333 7.04365 5.33333ZM2.37698 7.33333H1.37698C0.824699 7.33333 0.376984 7.78105 0.376984 8.33333V10.3333C0.376984 10.8856 0.824699 11.3333 1.37698 11.3333H2.37698C2.92927 11.3333 3.37698 10.8856 3.37698 10.3333V8.33333C3.37698 7.78105 2.92927 7.33333 2.37698 7.33333Z" fill="#151619"/>
</svg>
