<svg width="18" height="12" viewBox="0 0 18 12" fill="none" xmlns="http://www.w3.org/2000/svg">
<path fill-rule="evenodd" clip-rule="evenodd" d="M16.3997 0.666656H15.3997C14.8474 0.666656 14.3997 1.11437 14.3997 1.66666V10.3333C14.3997 10.8856 14.8474 11.3333 15.3997 11.3333H16.3997C16.9519 11.3333 17.3997 10.8856 17.3997 10.3333V1.66666C17.3997 1.11437 16.9519 0.666656 16.3997 0.666656ZM10.733 2.99999H11.733C12.2853 2.99999 12.733 3.44771 12.733 3.99999V10.3333C12.733 10.8856 12.2853 11.3333 11.733 11.3333H10.733C10.1807 11.3333 9.73299 10.8856 9.73299 10.3333V3.99999C9.73299 3.44771 10.1807 2.99999 10.733 2.99999ZM7.06632 5.33332H6.06632C5.51404 5.33332 5.06632 5.78104 5.06632 6.33332V10.3333C5.06632 10.8856 5.51404 11.3333 6.06632 11.3333H7.06632C7.61861 11.3333 8.06632 10.8856 8.06632 10.3333V6.33332C8.06632 5.78104 7.61861 5.33332 7.06632 5.33332ZM2.39966 7.33332H1.39966C0.847373 7.33332 0.399658 7.78104 0.399658 8.33332V10.3333C0.399658 10.8856 0.847373 11.3333 1.39966 11.3333H2.39966C2.95194 11.3333 3.39966 10.8856 3.39966 10.3333V8.33332C3.39966 7.78104 2.95194 7.33332 2.39966 7.33332Z" fill="#151619"/>
</svg>
