<svg width="18" height="12" viewBox="0 0 18 12" fill="none" xmlns="http://www.w3.org/2000/svg">
<path fill-rule="evenodd" clip-rule="evenodd" d="M16.8745 0.666664H15.8745C15.3222 0.666664 14.8745 1.11438 14.8745 1.66666V10.3333C14.8745 10.8856 15.3222 11.3333 15.8745 11.3333H16.8745C17.4268 11.3333 17.8745 10.8856 17.8745 10.3333V1.66666C17.8745 1.11438 17.4268 0.666664 16.8745 0.666664ZM11.2078 3H12.2078C12.7601 3 13.2078 3.44771 13.2078 4V10.3333C13.2078 10.8856 12.7601 11.3333 12.2078 11.3333H11.2078C10.6556 11.3333 10.2078 10.8856 10.2078 10.3333V4C10.2078 3.44771 10.6556 3 11.2078 3ZM7.54118 5.33333H6.54118C5.98889 5.33333 5.54118 5.78105 5.54118 6.33333V10.3333C5.54118 10.8856 5.98889 11.3333 6.54118 11.3333H7.54118C8.09346 11.3333 8.54118 10.8856 8.54118 10.3333V6.33333C8.54118 5.78105 8.09346 5.33333 7.54118 5.33333ZM2.87451 7.33333H1.87451C1.32223 7.33333 0.874512 7.78105 0.874512 8.33333V10.3333C0.874512 10.8856 1.32223 11.3333 1.87451 11.3333H2.87451C3.4268 11.3333 3.87451 10.8856 3.87451 10.3333V8.33333C3.87451 7.78105 3.4268 7.33333 2.87451 7.33333Z" fill="#151619"/>
</svg>
