<svg width="18" height="12" viewBox="0 0 18 12" fill="none" xmlns="http://www.w3.org/2000/svg">
<path fill-rule="evenodd" clip-rule="evenodd" d="M16.3997 0.666664H15.3997C14.8474 0.666664 14.3997 1.11438 14.3997 1.66666V10.3333C14.3997 10.8856 14.8474 11.3333 15.3997 11.3333H16.3997C16.9519 11.3333 17.3997 10.8856 17.3997 10.3333V1.66666C17.3997 1.11438 16.9519 0.666664 16.3997 0.666664ZM10.733 3H11.733C12.2853 3 12.733 3.44771 12.733 4V10.3333C12.733 10.8856 12.2853 11.3333 11.733 11.3333H10.733C10.1807 11.3333 9.73299 10.8856 9.73299 10.3333V4C9.73299 3.44771 10.1807 3 10.733 3ZM7.06632 5.33333H6.06632C5.51404 5.33333 5.06632 5.78105 5.06632 6.33333V10.3333C5.06632 10.8856 5.51404 11.3333 6.06632 11.3333H7.06632C7.61861 11.3333 8.06632 10.8856 8.06632 10.3333V6.33333C8.06632 5.78105 7.61861 5.33333 7.06632 5.33333ZM2.39966 7.33333H1.39966C0.847373 7.33333 0.399658 7.78105 0.399658 8.33333V10.3333C0.399658 10.8856 0.847373 11.3333 1.39966 11.3333H2.39966C2.95194 11.3333 3.39966 10.8856 3.39966 10.3333V8.33333C3.39966 7.78105 2.95194 7.33333 2.39966 7.33333Z" fill="#151619"/>
</svg>
