<svg width="17" height="16" viewBox="0 0 17 16" fill="none" xmlns="http://www.w3.org/2000/svg">
<path fill-rule="evenodd" clip-rule="evenodd" d="M10.8254 2.95337C10.8752 2.99612 10.9162 3.04828 10.9459 3.10688C10.9756 3.16547 10.9935 3.22934 10.9985 3.29484C11.0035 3.36035 10.9956 3.4262 10.9751 3.48863C10.9547 3.55106 10.9221 3.60885 10.8794 3.6587L7.15868 8.00003L10.8794 12.3414C10.9246 12.3908 10.9595 12.4488 10.9819 12.512C11.0043 12.5752 11.0137 12.6422 11.0097 12.7091C11.0057 12.776 10.9882 12.8415 10.9584 12.9015C10.9286 12.9615 10.887 13.0149 10.8361 13.0586C10.7852 13.1022 10.7261 13.1352 10.6622 13.1555C10.5983 13.1758 10.531 13.1831 10.4643 13.1769C10.3976 13.1707 10.3327 13.1511 10.2737 13.1194C10.2147 13.0876 10.1626 13.0443 10.1207 12.992L6.12068 8.32537C6.04304 8.23476 6.00037 8.11936 6.00037 8.00003C6.00037 7.88071 6.04304 7.76531 6.12068 7.6747L10.1207 3.00804C10.207 2.90749 10.3297 2.84533 10.4618 2.8352C10.594 2.82508 10.7247 2.86782 10.8254 2.95404V2.95337Z" fill="#91AEE4"/>
</svg>
