<svg width="21" height="18" viewBox="0 0 21 18" fill="none" xmlns="http://www.w3.org/2000/svg">
<path fill-rule="evenodd" clip-rule="evenodd" d="M10.4211 4.40503C9.94148 4.40503 9.55268 4.79383 9.55268 5.27345V8.07591H5.94475C5.53927 8.07591 5.21057 8.40462 5.21057 8.81009C5.21057 9.21557 5.53927 9.54427 5.94475 9.54427H9.55268V12.3467C9.55268 12.8263 9.94148 13.2152 10.4211 13.2152C10.9007 13.2152 11.2895 12.8263 11.2895 12.3467V9.54427H14.8974C15.3029 9.54427 15.6316 9.21557 15.6316 8.81009C15.6316 8.40462 15.3029 8.07591 14.8974 8.07591H11.2895V5.27345C11.2895 4.79383 10.9007 4.40503 10.4211 4.40503Z" fill="#DF1525"/>
<rect width="20.8421" height="17.6203" stroke="#D9D9D9"/>
</svg>
