<svg width="22" height="18" viewBox="0 0 22 18" fill="none" xmlns="http://www.w3.org/2000/svg">
<path fill-rule="evenodd" clip-rule="evenodd" d="M11.191 4.7431C10.7114 4.7431 10.3226 5.13191 10.3226 5.61152V8.41399H6.71465C6.30917 8.41399 5.98047 8.74269 5.98047 9.14817C5.98047 9.55364 6.30917 9.88234 6.71465 9.88234H10.3226V12.6848C10.3226 13.1644 10.7114 13.5532 11.191 13.5532C11.6706 13.5532 12.0594 13.1644 12.0594 12.6848V9.88234H15.6673C16.0728 9.88234 16.4015 9.55364 16.4015 9.14817C16.4015 8.74269 16.0728 8.41399 15.6673 8.41399H12.0594V5.61152C12.0594 5.13191 11.6706 4.7431 11.191 4.7431Z" fill="#DF1525"/>
<rect x="0.77002" y="0.338013" width="20.8421" height="17.6203" stroke="#D9D9D9"/>
</svg>
