<svg width="22" height="18" viewBox="0 0 22 18" fill="none" xmlns="http://www.w3.org/2000/svg">
<path fill-rule="evenodd" clip-rule="evenodd" d="M10.7562 4.55804C10.2842 4.55804 9.9015 4.9407 9.9015 5.41274V8.18106H6.35265C5.95247 8.18106 5.62805 8.50547 5.62805 8.90566C5.62805 9.30585 5.95247 9.63026 6.35265 9.63026H9.9015V12.3986C9.9015 12.8706 10.2842 13.2533 10.7562 13.2533C11.2282 13.2533 11.6109 12.8706 11.6109 12.3986V9.63026H15.1597C15.5599 9.63026 15.8843 9.30585 15.8843 8.90566C15.8843 8.50547 15.5599 8.18106 15.1597 8.18106H11.6109V5.41273C11.6109 4.9407 11.2282 4.55804 10.7562 4.55804Z" fill="#DF1525"/>
<rect x="0.499939" y="0.210449" width="20.5125" height="17.3905" stroke="#D9D9D9"/>
</svg>
