<svg width="24" height="24" viewBox="0 0 24 24" fill="none" xmlns="http://www.w3.org/2000/svg">
<path d="M4.07995 4L10.562 12.101C10.8457 12.4558 11.0002 12.8967 11 13.351V20L13 18.5V13.35C13 12.896 13.1544 12.4556 13.438 12.101L19.92 4H4.08095H4.07995ZM4.07995 2H19.92C20.2967 2.00005 20.6658 2.10652 20.9847 2.30717C21.3037 2.50781 21.5594 2.79445 21.7225 3.13409C21.8857 3.47372 21.9495 3.85253 21.9068 4.22687C21.8641 4.60122 21.7164 4.95588 21.481 5.25L15 13.35V18.5C15 18.8105 14.9277 19.1167 14.7888 19.3944C14.65 19.6721 14.4483 19.9137 14.2 20.1L12.2 21.6C11.9028 21.8229 11.5495 21.9586 11.1796 21.9919C10.8096 22.0253 10.4377 21.955 10.1055 21.7889C9.77331 21.6227 9.49392 21.3674 9.29865 21.0515C9.10338 20.7355 8.99995 20.3714 8.99995 20V13.35L2.51895 5.25C2.28347 4.95588 2.13585 4.60122 2.09311 4.22687C2.05037 3.85253 2.11424 3.47372 2.27737 3.13409C2.4405 2.79445 2.69625 2.50781 3.01516 2.30717C3.33407 2.10652 3.70317 2.00005 4.07995 2Z" fill="#333333"/>
</svg>
