<svg width="24" height="21" viewBox="0 0 24 21" fill="none" xmlns="http://www.w3.org/2000/svg">
<g clip-path="url(#clip0_342_11097)">
<path d="M14.5297 8.88807L9.46965 13.1047C8.79865 12.5456 8.42169 11.7872 8.42169 10.9964C8.42169 10.6049 8.51424 10.2171 8.69405 9.85538C8.87386 9.49363 9.13741 9.16494 9.46965 8.88807C9.8019 8.6112 10.1963 8.39157 10.6304 8.24173C11.0645 8.09189 11.5298 8.01477 11.9997 8.01477C12.9486 8.01477 13.8587 8.32891 14.5297 8.88807Z" stroke="#A7A5A5" stroke-width="1.5" stroke-linecap="round" stroke-linejoin="round"/>
<path d="M17.8197 5.80474C16.0697 4.70474 14.0697 4.10474 11.9997 4.10474C8.46966 4.10474 5.17966 5.83807 2.88966 8.83807C1.98966 10.0131 1.98966 11.9881 2.88966 13.1631C3.67966 14.1964 4.59966 15.0881 5.59966 15.8047M8.41966 17.2714C9.55966 17.6714 10.7697 17.8881 11.9997 17.8881C15.5297 17.8881 18.8197 16.1547 21.1097 13.1547C22.0097 11.9797 22.0097 10.0047 21.1097 8.82974C20.7797 8.3964 20.4197 7.98807 20.0497 7.60474" stroke="#A7A5A5" stroke-width="1.5" stroke-linecap="round" stroke-linejoin="round"/>
<path d="M15.5096 11.5797C15.3742 12.161 15.0333 12.6953 14.5308 13.1141C14.0284 13.5328 13.3872 13.8168 12.6896 13.9297M9.46963 13.1047L1.99963 19.3297M21.9996 2.66306L14.5296 8.88806" stroke="#A7A5A5" stroke-width="1.5" stroke-linecap="round" stroke-linejoin="round"/>
</g>
<defs>
<clipPath id="clip0_342_11097">
<rect width="24" height="20" fill="white" transform="translate(-0.000366211 0.996399)"/>
</clipPath>
</defs>
</svg>
