<svg width="16" height="16" viewBox="0 0 16 16" fill="none" xmlns="http://www.w3.org/2000/svg">
<path d="M1.33329 3.51341L2.18663 2.66675L13.3333 13.8134L12.4866 14.6667L10.4333 12.6134C9.66663 12.8667 8.85329 13.0001 7.99996 13.0001C4.66663 13.0001 1.81996 10.9267 0.666626 8.00008C1.12663 6.82675 1.85996 5.79341 2.79329 4.97341L1.33329 3.51341ZM7.99996 6.00008C8.53039 6.00008 9.0391 6.21079 9.41417 6.58587C9.78925 6.96094 9.99996 7.46965 9.99996 8.00008C10.0003 8.22713 9.96197 8.45257 9.88663 8.66675L7.33329 6.11341C7.54747 6.03807 7.77291 5.99974 7.99996 6.00008ZM7.99996 3.00008C11.3333 3.00008 14.18 5.07341 15.3333 8.00008C14.7892 9.38222 13.8646 10.5819 12.6666 11.4601L11.72 10.5067C12.6419 9.869 13.3854 9.00612 13.88 8.00008C13.341 6.90004 12.5042 5.97326 11.4648 5.32508C10.4254 4.67691 9.22494 4.33333 7.99996 4.33341C7.27329 4.33341 6.55996 4.45341 5.89329 4.66675L4.86663 3.64675C5.82663 3.23341 6.88663 3.00008 7.99996 3.00008ZM2.11996 8.00008C2.65892 9.10012 3.49567 10.0269 4.53511 10.6751C5.57455 11.3233 6.77498 11.6668 7.99996 11.6667C8.45996 11.6667 8.91329 11.6201 9.33329 11.5267L7.81329 10.0001C7.3494 9.95036 6.91651 9.74333 6.58661 9.41343C6.25671 9.08353 6.04968 8.65064 5.99996 8.18675L3.73329 5.91341C3.07329 6.48008 2.51996 7.18675 2.11996 8.00008Z" fill="#333333"/>
</svg>
