<svg width="22" height="18" viewBox="0 0 22 18" fill="none" xmlns="http://www.w3.org/2000/svg">
<path fill-rule="evenodd" clip-rule="evenodd" d="M10.7563 4.55804C10.2843 4.55804 9.90162 4.9407 9.90162 5.41274V8.18106H6.35278C5.95259 8.18106 5.62817 8.50547 5.62817 8.90566C5.62817 9.30585 5.95259 9.63026 6.35278 9.63026H9.90162V12.3986C9.90162 12.8706 10.2843 13.2533 10.7563 13.2533C11.2283 13.2533 11.611 12.8706 11.611 12.3986V9.63026H15.1598C15.56 9.63026 15.8844 9.30585 15.8844 8.90566C15.8844 8.50547 15.56 8.18106 15.1598 8.18106H11.611V5.41273C11.611 4.9407 11.2283 4.55804 10.7563 4.55804Z" fill="#DF1525"/>
<rect x="0.5" y="0.210449" width="20.5125" height="17.3905" stroke="#D9D9D9"/>
</svg>
