<svg width="25" height="24" viewBox="0 0 25 24" fill="none" xmlns="http://www.w3.org/2000/svg">
<path d="M9.88478 20.7733V17.7156C9.88478 16.9351 10.5222 16.3023 11.3084 16.3023H14.1826C14.5602 16.3023 14.9223 16.4512 15.1893 16.7163C15.4563 16.9813 15.6063 17.3408 15.6063 17.7156V20.7733C15.6039 21.0978 15.7321 21.4099 15.9624 21.6402C16.1927 21.8705 16.506 22 16.8329 22H18.7938C19.7096 22.0024 20.5888 21.6428 21.2372 21.0008C21.8856 20.3588 22.25 19.487 22.25 18.5778V9.86686C22.25 9.13246 21.9221 8.43584 21.3546 7.96467L14.684 2.67587C13.5237 1.74856 11.8611 1.7785 10.7354 2.74698L4.21701 7.96467C3.62274 8.42195 3.26755 9.12064 3.25 9.86686V18.5689C3.25 20.4639 4.79738 22 6.70617 22H8.62229C9.30123 22 9.853 21.4562 9.85792 20.7822L9.88478 20.7733Z" fill="#153E6A"/>
</svg>
