<svg width="22" height="18" viewBox="0 0 22 18" fill="none" xmlns="http://www.w3.org/2000/svg">
<path fill-rule="evenodd" clip-rule="evenodd" d="M11.2555 4.38733C10.7743 4.38733 10.3842 4.77744 10.3842 5.25867V8.00244H6.75049C6.35117 8.00244 6.02747 8.32615 6.02747 8.72546C6.02747 9.12478 6.35117 9.44848 6.75049 9.44848H10.3842V12.1923C10.3842 12.6735 10.7743 13.0636 11.2555 13.0636C11.7368 13.0636 12.1269 12.6735 12.1269 12.1923V9.44848H15.7606C16.1599 9.44848 16.4836 9.12478 16.4836 8.72546C16.4836 8.32615 16.1599 8.00244 15.7606 8.00244H12.1269V5.25867C12.1269 4.77744 11.7368 4.38733 11.2555 4.38733Z" fill="#DF1525"/>
<rect x="0.799438" y="0.0491943" width="20.9123" height="17.3525" stroke="#D9D9D9"/>
</svg>
