<svg width="22" height="18" viewBox="0 0 22 18" fill="none" xmlns="http://www.w3.org/2000/svg">
<path fill-rule="evenodd" clip-rule="evenodd" d="M10.7563 4.68484C10.2843 4.68484 9.90162 5.0675 9.90162 5.53954V8.30786H6.35278C5.95259 8.30786 5.62817 8.63227 5.62817 9.03246C5.62817 9.43265 5.95259 9.75706 6.35278 9.75706H9.90162V12.5254C9.90162 12.9974 10.2843 13.3801 10.7563 13.3801C11.2283 13.3801 11.611 12.9974 11.611 12.5254V9.75706H15.1598C15.56 9.75706 15.8844 9.43265 15.8844 9.03246C15.8844 8.63227 15.56 8.30786 15.1598 8.30786H11.611V5.53953C11.611 5.0675 11.2283 4.68484 10.7563 4.68484Z" fill="#DF1525"/>
<rect x="0.5" y="0.337229" width="20.5125" height="17.3905" stroke="#D9D9D9"/>
</svg>
