<svg width="22" height="18" viewBox="0 0 22 18" fill="none" xmlns="http://www.w3.org/2000/svg">
<path fill-rule="evenodd" clip-rule="evenodd" d="M10.7563 4.68481C10.2843 4.68481 9.90162 5.06747 9.90162 5.53951V8.30783H6.35278C5.95259 8.30783 5.62817 8.63224 5.62817 9.03243C5.62817 9.43262 5.95259 9.75703 6.35278 9.75703H9.90162V12.5254C9.90162 12.9974 10.2843 13.38 10.7563 13.38C11.2283 13.38 11.611 12.9974 11.611 12.5254V9.75703H15.1598C15.56 9.75703 15.8844 9.43262 15.8844 9.03243C15.8844 8.63224 15.56 8.30783 15.1598 8.30783H11.611V5.5395C11.611 5.06747 11.2283 4.68481 10.7563 4.68481Z" fill="#DF1525"/>
<rect x="0.5" y="0.337219" width="20.5125" height="17.3905" stroke="#D9D9D9"/>
</svg>
