<svg width="22" height="18" viewBox="0 0 22 18" fill="none" xmlns="http://www.w3.org/2000/svg">
<path fill-rule="evenodd" clip-rule="evenodd" d="M10.7563 4.55807C10.2843 4.55807 9.90162 4.94073 9.90162 5.41277V8.18109H6.35278C5.95259 8.18109 5.62817 8.5055 5.62817 8.90569C5.62817 9.30588 5.95259 9.63029 6.35278 9.63029H9.90162V12.3986C9.90162 12.8706 10.2843 13.2533 10.7563 13.2533C11.2283 13.2533 11.611 12.8706 11.611 12.3986V9.63029H15.1598C15.56 9.63029 15.8844 9.30588 15.8844 8.90569C15.8844 8.5055 15.56 8.18109 15.1598 8.18109H11.611V5.41276C11.611 4.94073 11.2283 4.55807 10.7563 4.55807Z" fill="#DF1525"/>
<rect x="0.5" y="0.210457" width="20.5125" height="17.3905" stroke="#D9D9D9"/>
</svg>
