<svg width="22" height="18" viewBox="0 0 22 18" fill="none" xmlns="http://www.w3.org/2000/svg">
<path fill-rule="evenodd" clip-rule="evenodd" d="M11.1911 4.74307C10.7115 4.74307 10.3227 5.13188 10.3227 5.61149V8.41396H6.71477C6.30929 8.41396 5.98059 8.74266 5.98059 9.14814C5.98059 9.55361 6.30929 9.88231 6.71477 9.88231H10.3227V12.6848C10.3227 13.1644 10.7115 13.5532 11.1911 13.5532C11.6707 13.5532 12.0595 13.1644 12.0595 12.6848V9.88231H15.6675C16.0729 9.88231 16.4016 9.55361 16.4016 9.14814C16.4016 8.74266 16.0729 8.41396 15.6675 8.41396H12.0595V5.61149C12.0595 5.13188 11.6707 4.74307 11.1911 4.74307Z" fill="#DF1525"/>
<rect x="0.77002" y="0.338013" width="20.8421" height="17.6203" stroke="#D9D9D9"/>
</svg>
