<svg width="22" height="18" viewBox="0 0 22 18" fill="none" xmlns="http://www.w3.org/2000/svg">
<path fill-rule="evenodd" clip-rule="evenodd" d="M10.7563 4.43127C10.2843 4.43127 9.90162 4.81393 9.90162 5.28597V8.05429H6.35278C5.95259 8.05429 5.62817 8.3787 5.62817 8.77889C5.62817 9.17908 5.95259 9.50349 6.35278 9.50349H9.90162V12.2718C9.90162 12.7438 10.2843 13.1265 10.7563 13.1265C11.2283 13.1265 11.611 12.7438 11.611 12.2718V9.50349H15.1598C15.56 9.50349 15.8844 9.17908 15.8844 8.77889C15.8844 8.3787 15.56 8.05429 15.1598 8.05429H11.611V5.28596C11.611 4.81393 11.2283 4.43127 10.7563 4.43127Z" fill="#DF1525"/>
<rect x="0.5" y="0.0836792" width="20.5125" height="17.3905" stroke="#D9D9D9"/>
</svg>
