<svg width="17" height="20" viewBox="0 0 17 20" fill="none" xmlns="http://www.w3.org/2000/svg">
<path d="M5.26666 17.2042C5.1 17.0063 5.01666 16.772 5.01666 16.5012C5.01666 16.2305 5.1 15.9964 5.26666 15.799L10.15 10.0001L5.25 4.18133C5.09444 3.99661 5.01666 3.76571 5.01666 3.48862C5.01666 3.21154 5.1 2.97404 5.26666 2.77612C5.43333 2.57821 5.63066 2.47925 5.85866 2.47925C6.08666 2.47925 6.28377 2.57821 6.45 2.77612L12.05 9.44591C12.1167 9.52508 12.164 9.61084 12.192 9.70321C12.22 9.79557 12.2338 9.89453 12.2333 10.0001C12.2333 10.1056 12.2193 10.2046 12.1913 10.297C12.1633 10.3893 12.1162 10.4751 12.05 10.5542L6.43333 17.224C6.27777 17.4088 6.086 17.5011 5.858 17.5011C5.63 17.5011 5.43288 17.4022 5.26666 17.2042Z" fill="#333333"/>
</svg>
