<svg width="22" height="18" viewBox="0 0 22 18" fill="none" xmlns="http://www.w3.org/2000/svg">
<path fill-rule="evenodd" clip-rule="evenodd" d="M10.7562 4.43127C10.2842 4.43127 9.9015 4.81393 9.9015 5.28597V8.05429H6.35265C5.95247 8.05429 5.62805 8.3787 5.62805 8.77889C5.62805 9.17908 5.95247 9.50349 6.35265 9.50349H9.9015V12.2718C9.9015 12.7438 10.2842 13.1265 10.7562 13.1265C11.2282 13.1265 11.6109 12.7438 11.6109 12.2718V9.50349H15.1597C15.5599 9.50349 15.8843 9.17908 15.8843 8.77889C15.8843 8.3787 15.5599 8.05429 15.1597 8.05429H11.6109V5.28596C11.6109 4.81393 11.2282 4.43127 10.7562 4.43127Z" fill="#DF1525"/>
<rect x="0.499939" y="0.0836792" width="20.5125" height="17.3905" stroke="#D9D9D9"/>
</svg>
