<svg width="16" height="16" viewBox="0 0 16 16" fill="none" xmlns="http://www.w3.org/2000/svg">
<path d="M13.3538 10.3537C13.3073 10.4001 13.2522 10.437 13.1915 10.4622C13.1308 10.4873 13.0657 10.5003 13 10.5003C12.9343 10.5003 12.8693 10.4873 12.8086 10.4622C12.7479 10.437 12.6927 10.4001 12.6463 10.3537L8.00003 5.70678L3.35378 10.3537C3.25996 10.4475 3.13272 10.5002 3.00003 10.5002C2.86735 10.5002 2.7401 10.4475 2.64628 10.3537C2.55246 10.2598 2.49976 10.1326 2.49976 9.99991C2.49976 9.86722 2.55246 9.73998 2.64628 9.64615L7.64628 4.64615C7.69272 4.59967 7.74786 4.56279 7.80856 4.53763C7.86926 4.51246 7.93433 4.49951 8.00003 4.49951C8.06574 4.49951 8.1308 4.51246 8.1915 4.53763C8.2522 4.56279 8.30735 4.59967 8.35378 4.64615L13.3538 9.64615C13.4003 9.69259 13.4372 9.74774 13.4623 9.80843C13.4875 9.86913 13.5004 9.9342 13.5004 9.99991C13.5004 10.0656 13.4875 10.1307 13.4623 10.1914C13.4372 10.2521 13.4003 10.3072 13.3538 10.3537Z" fill="#333333"/>
</svg>
