<svg width="24" height="21" viewBox="0 0 24 21" fill="none" xmlns="http://www.w3.org/2000/svg">
<g clip-path="url(#clip0_342_11104)">
<path d="M14.53 8.88679L9.46996 13.1035C8.79896 12.5443 8.422 11.7859 8.422 10.9951C8.422 10.6036 8.51454 10.2158 8.69435 9.8541C8.87416 9.49235 9.13771 9.16366 9.46996 8.88679C9.8022 8.60992 10.1966 8.39029 10.6307 8.24045C11.0648 8.09061 11.5301 8.01349 12 8.01349C12.9489 8.01349 13.859 8.32762 14.53 8.88679Z" stroke="#A7A5A5" stroke-width="1.5" stroke-linecap="round" stroke-linejoin="round"/>
<path d="M17.82 5.80345C16.07 4.70345 14.07 4.10345 12 4.10345C8.46997 4.10345 5.17997 5.83679 2.88997 8.83679C1.98997 10.0118 1.98997 11.9868 2.88997 13.1618C3.67997 14.1951 4.59997 15.0868 5.59997 15.8035M8.41997 17.2701C9.55997 17.6701 10.77 17.8868 12 17.8868C15.53 17.8868 18.82 16.1535 21.11 13.1535C22.01 11.9785 22.01 10.0035 21.11 8.82845C20.78 8.39512 20.42 7.98679 20.05 7.60345" stroke="#A7A5A5" stroke-width="1.5" stroke-linecap="round" stroke-linejoin="round"/>
<path d="M15.5099 11.5785C15.3745 12.1598 15.0336 12.6941 14.5312 13.1128C14.0287 13.5315 13.3875 13.8156 12.6899 13.9285M9.46994 13.1035L1.99994 19.3285M21.9999 2.6618L14.5299 8.8868" stroke="#A7A5A5" stroke-width="1.5" stroke-linecap="round" stroke-linejoin="round"/>
</g>
<defs>
<clipPath id="clip0_342_11104">
<rect width="24" height="20" fill="white" transform="translate(-6.10352e-05 0.995117)"/>
</clipPath>
</defs>
</svg>
