<svg width="22" height="18" viewBox="0 0 22 18" fill="none" xmlns="http://www.w3.org/2000/svg">
<path fill-rule="evenodd" clip-rule="evenodd" d="M10.7562 4.68481C10.2842 4.68481 9.9015 5.06747 9.9015 5.53951V8.30783H6.35265C5.95247 8.30783 5.62805 8.63224 5.62805 9.03243C5.62805 9.43262 5.95247 9.75703 6.35265 9.75703H9.9015V12.5254C9.9015 12.9974 10.2842 13.38 10.7562 13.38C11.2282 13.38 11.6109 12.9974 11.6109 12.5254V9.75703H15.1597C15.5599 9.75703 15.8843 9.43262 15.8843 9.03243C15.8843 8.63224 15.5599 8.30783 15.1597 8.30783H11.6109V5.5395C11.6109 5.06747 11.2282 4.68481 10.7562 4.68481Z" fill="#DF1525"/>
<rect x="0.499939" y="0.337219" width="20.5125" height="17.3905" stroke="#D9D9D9"/>
</svg>
