<svg width="22" height="18" viewBox="0 0 22 18" fill="none" xmlns="http://www.w3.org/2000/svg">
<path fill-rule="evenodd" clip-rule="evenodd" d="M10.7563 4.4313C10.2843 4.4313 9.90162 4.81396 9.90162 5.286V8.05432H6.35278C5.95259 8.05432 5.62817 8.37873 5.62817 8.77892C5.62817 9.17911 5.95259 9.50352 6.35278 9.50352H9.90162V12.2718C9.90162 12.7439 10.2843 13.1265 10.7563 13.1265C11.2283 13.1265 11.611 12.7439 11.611 12.2718V9.50352H15.1598C15.56 9.50352 15.8844 9.17911 15.8844 8.77892C15.8844 8.37873 15.56 8.05432 15.1598 8.05432H11.611V5.28599C11.611 4.81396 11.2283 4.4313 10.7563 4.4313Z" fill="#DF1525"/>
<rect x="0.5" y="0.0836945" width="20.5125" height="17.3905" stroke="#D9D9D9"/>
</svg>
