<svg width="25" height="24" viewBox="0 0 25 24" fill="none" xmlns="http://www.w3.org/2000/svg">
<g clip-path="url(#clip0_342_13021)">
<path d="M11.4583 2C16.6333 2 20.8333 6.032 20.8333 11C20.8333 15.968 16.6333 20 11.4583 20C6.28331 20 2.08331 15.968 2.08331 11C2.08331 6.032 6.28331 2 11.4583 2ZM11.4583 18C15.4864 18 18.75 14.867 18.75 11C18.75 7.132 15.4864 4 11.4583 4C7.42915 4 4.16665 7.132 4.16665 11C4.16665 14.867 7.42915 18 11.4583 18ZM20.2969 18.071L23.2437 20.899L21.7698 22.314L18.8239 19.485L20.2969 18.071V18.071Z" fill="black"/>
</g>
<defs>
<clipPath id="clip0_342_13021">
<rect width="25" height="24" fill="white"/>
</clipPath>
</defs>
</svg>
