<svg width="25" height="24" viewBox="0 0 25 24" fill="none" xmlns="http://www.w3.org/2000/svg">
<g clip-path="url(#clip0_342_10498)">
<path d="M11.4584 2C16.6334 2 20.8334 6.032 20.8334 11C20.8334 15.968 16.6334 20 11.4584 20C6.28337 20 2.08337 15.968 2.08337 11C2.08337 6.032 6.28337 2 11.4584 2ZM11.4584 18C15.4865 18 18.75 14.867 18.75 11C18.75 7.132 15.4865 4 11.4584 4C7.42921 4 4.16671 7.132 4.16671 11C4.16671 14.867 7.42921 18 11.4584 18ZM20.2969 18.071L23.2438 20.899L21.7698 22.314L18.824 19.485L20.2969 18.071V18.071Z" fill="black"/>
</g>
<defs>
<clipPath id="clip0_342_10498">
<rect width="25" height="24" fill="white"/>
</clipPath>
</defs>
</svg>
