<svg width="26" height="25" viewBox="0 0 26 25" fill="none" xmlns="http://www.w3.org/2000/svg">
<g clip-path="url(#clip0_342_10888)">
<path d="M11.9583 2.39087C17.1333 2.39087 21.3333 6.42287 21.3333 11.3909C21.3333 16.3589 17.1333 20.3909 11.9583 20.3909C6.78334 20.3909 2.58334 16.3589 2.58334 11.3909C2.58334 6.42287 6.78334 2.39087 11.9583 2.39087ZM11.9583 18.3909C15.9865 18.3909 19.25 15.2579 19.25 11.3909C19.25 7.52287 15.9865 4.39087 11.9583 4.39087C7.92918 4.39087 4.66668 7.52287 4.66668 11.3909C4.66668 15.2579 7.92918 18.3909 11.9583 18.3909ZM20.7969 18.4619L23.7438 21.2899L22.2698 22.7049L19.324 19.8759L20.7969 18.4619V18.4619Z" fill="black"/>
</g>
<defs>
<clipPath id="clip0_342_10888">
<rect width="25" height="24" fill="white" transform="translate(0.5 0.390869)"/>
</clipPath>
</defs>
</svg>
