<svg width="17" height="16" viewBox="0 0 17 16" fill="none" xmlns="http://www.w3.org/2000/svg">
<path d="M2.3399 6.4097C1.01373 7.01126 1.33501 8.85697 2.76373 8.8638L7.63775 8.87747C7.69927 8.87747 7.69244 8.85697 7.69244 8.92533L7.69927 13.7788C7.70611 15.2281 9.56548 15.5152 10.1807 14.1617L15.1846 3.24466C15.8545 1.78861 14.7471 0.729037 13.2911 1.39212L2.3399 6.4097ZM4.91705 7.16849C4.88287 7.16849 4.87603 7.14798 4.91705 7.12747L13.1133 3.39505C13.1612 3.37454 13.2022 3.38822 13.168 3.44974L9.42876 11.6392C9.40826 11.6734 9.38091 11.6665 9.38091 11.6324L9.40826 8.03665C9.41509 7.40091 9.15533 7.14115 8.51958 7.14798L4.91705 7.16849Z" fill="black"/>
</svg>
