<svg width="17" height="16" viewBox="0 0 17 16" fill="none" xmlns="http://www.w3.org/2000/svg">
<path d="M2.3399 6.40964C1.01373 7.0112 1.33501 8.85691 2.76373 8.86374L7.63775 8.87741C7.69927 8.87741 7.69244 8.85691 7.69244 8.92526L7.69927 13.7788C7.70611 15.228 9.56548 15.5151 10.1807 14.1616L15.1846 3.2446C15.8545 1.78855 14.7471 0.728976 13.2911 1.39206L2.3399 6.40964ZM4.91705 7.16843C4.88287 7.16843 4.87603 7.14792 4.91705 7.12741L13.1133 3.39499C13.1612 3.37448 13.2022 3.38816 13.168 3.44968L9.42876 11.6391C9.40826 11.6733 9.38091 11.6665 9.38091 11.6323L9.40826 8.03659C9.41509 7.40085 9.15533 7.14109 8.51958 7.14792L4.91705 7.16843Z" fill="black"/>
</svg>
