<svg width="220" height="170" viewBox="0 0 220 170" fill="none" xmlns="http://www.w3.org/2000/svg">
<g style="mix-blend-mode:luminosity" opacity="0.4">
<path d="M55.0001 155.833C49.9584 155.833 45.6409 154.445 42.0476 151.668C38.4543 148.892 36.6607 145.558 36.6668 141.667V28.3333C36.6668 24.4375 38.4634 21.1012 42.0568 18.3246C45.6501 15.5479 49.9645 14.1619 55.0001 14.1666H165C170.042 14.1666 174.359 15.555 177.953 18.3316C181.546 21.1083 183.34 24.4422 183.333 28.3333V141.667C183.333 145.562 181.537 148.899 177.943 151.675C174.35 154.452 170.036 155.838 165 155.833H55.0001ZM100.833 77.9166L123.75 67.2916L146.667 77.9166V28.3333H100.833V77.9166Z" fill="#91AEE4"/>
</g>
</svg>
