<svg width="28" height="28" viewBox="0 0 28 28" fill="none" xmlns="http://www.w3.org/2000/svg">
<path d="M14 10.5292C13.8445 10.5292 13.6936 10.5584 13.5473 10.6167C13.4011 10.6751 13.2798 10.7528 13.1833 10.8501L7.81668 16.2167C7.60279 16.4306 7.49585 16.7028 7.49585 17.0334C7.49585 17.364 7.60279 17.6362 7.81668 17.8501C8.03057 18.064 8.30279 18.1709 8.63335 18.1709C8.96391 18.1709 9.23613 18.064 9.45002 17.8501L14 13.3001L18.55 17.8501C18.7639 18.064 19.0361 18.1709 19.3667 18.1709C19.6972 18.1709 19.9695 18.064 20.1833 17.8501C20.3972 17.6362 20.5042 17.364 20.5042 17.0334C20.5042 16.7028 20.3972 16.4306 20.1833 16.2167L14.8167 10.8501C14.7 10.7334 14.5736 10.6506 14.4375 10.6016C14.3014 10.5526 14.1556 10.5285 14 10.5292Z" fill="#333333"/>
</svg>
