<svg width="19" height="19" viewBox="0 0 19 19" fill="none" xmlns="http://www.w3.org/2000/svg">
<path d="M6.33333 11.0834C6.10903 11.0834 5.92088 11.0074 5.76888 10.8554C5.61688 10.7034 5.54114 10.5155 5.54167 10.2917C5.54167 10.0674 5.61767 9.87925 5.76967 9.72725C5.92167 9.57525 6.10956 9.49951 6.33333 9.50004C6.55764 9.50004 6.74579 9.57604 6.89779 9.72804C7.04979 9.88004 7.12553 10.0679 7.125 10.2917C7.125 10.516 7.049 10.7042 6.897 10.8562C6.745 11.0082 6.55711 11.0839 6.33333 11.0834ZM9.5 11.0834C9.2757 11.0834 9.08754 11.0074 8.93554 10.8554C8.78354 10.7034 8.70781 10.5155 8.70834 10.2917C8.70834 10.0674 8.78434 9.87925 8.93634 9.72725C9.08834 9.57525 9.27622 9.49951 9.5 9.50004C9.72431 9.50004 9.91246 9.57604 10.0645 9.72804C10.2165 9.88004 10.2922 10.0679 10.2917 10.2917C10.2917 10.516 10.2157 10.7042 10.0637 10.8562C9.91167 11.0082 9.72378 11.0839 9.5 11.0834ZM12.6667 11.0834C12.4424 11.0834 12.2542 11.0074 12.1022 10.8554C11.9502 10.7034 11.8745 10.5155 11.875 10.2917C11.875 10.0674 11.951 9.87925 12.103 9.72725C12.255 9.57525 12.4429 9.49951 12.6667 9.50004C12.891 9.50004 13.0791 9.57604 13.2311 9.72804C13.3831 9.88004 13.4589 10.0679 13.4583 10.2917C13.4583 10.516 13.3823 10.7042 13.2303 10.8562C13.0783 11.0082 12.8904 11.0839 12.6667 11.0834ZM3.95833 17.4167C3.52292 17.4167 3.15004 17.2615 2.83971 16.9512C2.52938 16.6409 2.37447 16.2683 2.375 15.8334V4.75004C2.375 4.31462 2.53017 3.94175 2.8405 3.63142C3.15083 3.32108 3.52345 3.16618 3.95833 3.16671H4.75V1.58337H6.33333V3.16671H12.6667V1.58337H14.25V3.16671H15.0417C15.4771 3.16671 15.85 3.32187 16.1603 3.63221C16.4706 3.94254 16.6255 4.31515 16.625 4.75004V15.8334C16.625 16.2688 16.4698 16.6417 16.1595 16.952C15.8492 17.2623 15.4766 17.4172 15.0417 17.4167H3.95833ZM3.95833 15.8334H15.0417V7.91671H3.95833V15.8334ZM3.95833 6.33337H15.0417V4.75004H3.95833V6.33337Z" fill="white"/>
</svg>
