<svg width="31" height="31" viewBox="0 0 31 31" fill="none" xmlns="http://www.w3.org/2000/svg">
<path d="M15.0098 16.2752C15.7002 16.2753 16.2599 15.7157 16.2599 15.0254C16.26 14.335 15.7004 13.7753 15.01 13.7752C14.3197 13.7752 13.76 14.3348 13.7599 15.0251C13.7599 15.7155 14.3194 16.2752 15.0098 16.2752Z" stroke="black" stroke-width="2" stroke-linecap="round" stroke-linejoin="round"/>
<path d="M23.7598 16.276C24.4502 16.276 25.0099 15.7164 25.0099 15.0261C25.01 14.3357 24.4504 13.776 23.76 13.776C23.0697 13.7759 22.51 14.3355 22.5099 15.0259C22.5099 15.7162 23.0694 16.2759 23.7598 16.276Z" stroke="black" stroke-width="2" stroke-linecap="round" stroke-linejoin="round"/>
<path d="M6.25981 16.2745C6.95016 16.2746 7.50985 15.715 7.50991 15.0246C7.50996 14.3343 6.95037 13.7746 6.26001 13.7745C5.56965 13.7745 5.00996 14.3341 5.00991 15.0244C5.00985 15.7148 5.56945 16.2745 6.25981 16.2745Z" stroke="black" stroke-width="2" stroke-linecap="round" stroke-linejoin="round"/>
</svg>
