<svg width="20" height="12" viewBox="0 0 20 12" fill="none" xmlns="http://www.w3.org/2000/svg">
<path d="M10.0085 8.13354C10.7119 8.13354 11.3954 8.31839 11.9977 8.67086L12.2417 8.81367C12.4267 8.92194 12.4593 9.17532 12.3076 9.32658L10.2241 11.4043C10.0961 11.5319 9.88863 11.5319 9.76066 11.4043L7.69055 9.33994C7.53954 9.18934 7.57101 8.93724 7.75445 8.82818L7.99574 8.68471C8.60353 8.32333 9.29573 8.13354 10.0085 8.13354Z" fill="black"/>
<path d="M10.0084 4.31689C11.7583 4.31689 13.4385 4.89741 14.8072 5.97247L15.0007 6.1244C15.1549 6.24553 15.1684 6.47377 15.0296 6.6122L13.7858 7.8526C13.6707 7.96733 13.4887 7.98051 13.3582 7.88355L13.2066 7.77086C12.2822 7.08382 11.1675 6.71529 10.0084 6.71529C8.84225 6.71529 7.72104 7.0884 6.79354 7.78333L6.64176 7.89705C6.51129 7.9948 6.32858 7.98193 6.21319 7.86686L4.9698 6.62691C4.83128 6.48878 4.84443 6.26112 4.99794 6.13976L5.19027 5.9877C6.56225 4.90306 8.25006 4.31689 10.0084 4.31689Z" fill="black"/>
<path d="M10.0085 0.5C12.7856 0.5 15.4414 1.47963 17.5435 3.27524L17.723 3.42851C17.868 3.55237 17.8765 3.77314 17.7415 3.90777L16.5017 5.14415C16.3816 5.26393 16.1896 5.27232 16.0594 5.16348L15.9059 5.03512C14.2508 3.65119 12.1764 2.89839 10.0085 2.89839C7.83317 2.89839 5.75208 3.65638 4.09453 5.04896L3.94096 5.17798C3.81082 5.28731 3.61842 5.27913 3.4981 5.15914L2.25846 3.92294C2.12364 3.78849 2.13194 3.5681 2.27649 3.44411L2.45523 3.29079C4.55996 1.48548 7.22309 0.5 10.0085 0.5Z" fill="black"/>
</svg>
