<svg width="25" height="12" viewBox="0 0 25 12" fill="none" xmlns="http://www.w3.org/2000/svg">
<path opacity="0.35" d="M3.33866 0.833313H20.0053C21.2019 0.833313 22.172 1.80336 22.172 2.99998V8.99998C22.172 10.1966 21.2019 11.1666 20.0053 11.1666H3.33866C2.14205 11.1666 1.172 10.1966 1.172 8.99998V2.99998C1.172 1.80336 2.14205 0.833313 3.33866 0.833313Z" stroke="#151619"/>
<path opacity="0.4" d="M23.672 4V8C24.4767 7.66122 25 6.87313 25 6C25 5.12687 24.4767 4.33878 23.672 4" fill="#151619"/>
<path d="M2.672 3.66665C2.672 2.93027 3.26895 2.33331 4.00533 2.33331H19.3387C20.075 2.33331 20.672 2.93027 20.672 3.66665V8.33331C20.672 9.06969 20.075 9.66665 19.3387 9.66665H4.00533C3.26895 9.66665 2.672 9.06969 2.672 8.33331V3.66665Z" fill="#151619"/>
</svg>
