<svg width="25" height="12" viewBox="0 0 25 12" fill="none" xmlns="http://www.w3.org/2000/svg">
<path opacity="0.35" d="M2.81358 0.833336H19.4802C20.6769 0.833336 21.6469 1.80339 21.6469 3V9C21.6469 10.1966 20.6769 11.1667 19.4802 11.1667H2.81358C1.61696 11.1667 0.646912 10.1966 0.646912 9V3C0.646912 1.80338 1.61696 0.833336 2.81358 0.833336Z" stroke="#151619"/>
<path opacity="0.4" d="M23.1469 4V8C23.9516 7.66122 24.4749 6.87313 24.4749 6C24.4749 5.12687 23.9516 4.33878 23.1469 4" fill="#151619"/>
<path d="M2.14691 3.66667C2.14691 2.93029 2.74387 2.33334 3.48024 2.33334H18.8136C19.55 2.33334 20.1469 2.93029 20.1469 3.66667V8.33334C20.1469 9.06971 19.55 9.66667 18.8136 9.66667H3.48025C2.74387 9.66667 2.14691 9.06972 2.14691 8.33334V3.66667Z" fill="#151619"/>
</svg>
