<svg width="25" height="12" viewBox="0 0 25 12" fill="none" xmlns="http://www.w3.org/2000/svg">
<path opacity="0.35" d="M3.31603 0.833336H19.9827C21.1793 0.833336 22.1494 1.80339 22.1494 3V9C22.1494 10.1966 21.1793 11.1667 19.9827 11.1667H3.31603C2.11941 11.1667 1.14936 10.1966 1.14936 9V3C1.14936 1.80338 2.11941 0.833336 3.31603 0.833336Z" stroke="#151619"/>
<path opacity="0.4" d="M23.6494 4V8C24.4541 7.66122 24.9774 6.87313 24.9774 6C24.9774 5.12687 24.4541 4.33878 23.6494 4" fill="#151619"/>
<path d="M2.64936 3.66667C2.64936 2.93029 3.24631 2.33334 3.98269 2.33334H19.316C20.0524 2.33334 20.6494 2.93029 20.6494 3.66667V8.33334C20.6494 9.06971 20.0524 9.66667 19.316 9.66667H3.98269C3.24631 9.66667 2.64936 9.06972 2.64936 8.33334V3.66667Z" fill="#151619"/>
</svg>
