<svg width="25" height="12" viewBox="0 0 25 12" fill="none" xmlns="http://www.w3.org/2000/svg">
<path opacity="0.35" d="M3.24819 0.833313H19.9149C21.1115 0.833313 22.0815 1.80336 22.0815 2.99998V8.99998C22.0815 10.1966 21.1115 11.1666 19.9149 11.1666H3.24819C2.05157 11.1666 1.08152 10.1966 1.08152 8.99998V2.99998C1.08152 1.80336 2.05157 0.833313 3.24819 0.833313Z" stroke="#151619"/>
<path opacity="0.4" d="M23.5815 4V8C24.3863 7.66122 24.9096 6.87313 24.9096 6C24.9096 5.12687 24.3863 4.33878 23.5815 4" fill="#151619"/>
<path d="M2.58152 3.66665C2.58152 2.93027 3.17847 2.33331 3.91485 2.33331H19.2482C19.9846 2.33331 20.5815 2.93027 20.5815 3.66665V8.33331C20.5815 9.06969 19.9846 9.66665 19.2482 9.66665H3.91485C3.17847 9.66665 2.58152 9.06969 2.58152 8.33331V3.66665Z" fill="#151619"/>
</svg>
