<svg width="25" height="12" viewBox="0 0 25 12" fill="none" xmlns="http://www.w3.org/2000/svg">
<path opacity="0.35" d="M3.33879 0.833328H20.0055C21.2021 0.833328 22.1721 1.80338 22.1721 2.99999V9C22.1721 10.1966 21.2021 11.1667 20.0055 11.1667H3.33878C2.14217 11.1667 1.17212 10.1966 1.17212 8.99999V2.99999C1.17212 1.80338 2.14217 0.833328 3.33879 0.833328Z" stroke="#151619"/>
<path opacity="0.4" d="M23.6721 4V8C24.4769 7.66122 25.0002 6.87313 25.0002 6C25.0002 5.12687 24.4769 4.33878 23.6721 4" fill="#151619"/>
<path d="M2.67212 3.66666C2.67212 2.93028 3.26907 2.33333 4.00545 2.33333H19.3388C20.0752 2.33333 20.6721 2.93028 20.6721 3.66666V8.33333C20.6721 9.06971 20.0752 9.66666 19.3388 9.66666H4.00545C3.26907 9.66666 2.67212 9.06971 2.67212 8.33333V3.66666Z" fill="#151619"/>
</svg>
