<svg width="25" height="12" viewBox="0 0 25 12" fill="none" xmlns="http://www.w3.org/2000/svg">
<path opacity="0.35" d="M2.95414 0.833313H19.6208C20.8174 0.833313 21.7875 1.80336 21.7875 2.99998V8.99998C21.7875 10.1966 20.8174 11.1666 19.6208 11.1666H2.95414C1.75752 11.1666 0.787476 10.1966 0.787476 8.99998V2.99998C0.787476 1.80336 1.75752 0.833313 2.95414 0.833313Z" stroke="#151619"/>
<path opacity="0.4" d="M23.2875 4V8C24.0922 7.66122 24.6155 6.87313 24.6155 6C24.6155 5.12687 24.0922 4.33878 23.2875 4" fill="#151619"/>
<path d="M2.28748 3.66665C2.28748 2.93027 2.88443 2.33331 3.62081 2.33331H18.9541C19.6905 2.33331 20.2875 2.93027 20.2875 3.66665V8.33331C20.2875 9.06969 19.6905 9.66665 18.9541 9.66665H3.62081C2.88443 9.66665 2.28748 9.06969 2.28748 8.33331V3.66665Z" fill="#151619"/>
</svg>
