<svg width="25" height="12" viewBox="0 0 25 12" fill="none" xmlns="http://www.w3.org/2000/svg">
<path opacity="0.35" d="M3.33866 0.833336H20.0053C21.2019 0.833336 22.172 1.80339 22.172 3V9C22.172 10.1966 21.2019 11.1667 20.0053 11.1667H3.33866C2.14205 11.1667 1.172 10.1966 1.172 9V3C1.172 1.80338 2.14205 0.833336 3.33866 0.833336Z" stroke="#151619"/>
<path opacity="0.4" d="M23.672 4V8C24.4767 7.66122 25 6.87313 25 6C25 5.12687 24.4767 4.33878 23.672 4" fill="#151619"/>
<path d="M2.672 3.66667C2.672 2.93029 3.26895 2.33334 4.00533 2.33334H19.3387C20.075 2.33334 20.672 2.93029 20.672 3.66667V8.33334C20.672 9.06971 20.075 9.66667 19.3387 9.66667H4.00533C3.26895 9.66667 2.672 9.06972 2.672 8.33334V3.66667Z" fill="#151619"/>
</svg>
