<svg width="25" height="12" viewBox="0 0 25 12" fill="none" xmlns="http://www.w3.org/2000/svg">
<path opacity="0.35" d="M3.33879 0.833344H20.0055C21.2021 0.833344 22.1721 1.80339 22.1721 3.00001V9.00001C22.1721 10.1966 21.2021 11.1667 20.0055 11.1667H3.33878C2.14217 11.1667 1.17212 10.1966 1.17212 9.00001V3.00001C1.17212 1.80339 2.14217 0.833344 3.33879 0.833344Z" stroke="#151619"/>
<path opacity="0.4" d="M23.6721 4V8C24.4769 7.66122 25.0002 6.87313 25.0002 6C25.0002 5.12687 24.4769 4.33878 23.6721 4" fill="#151619"/>
<path d="M2.67212 3.66668C2.67212 2.9303 3.26907 2.33334 4.00545 2.33334H19.3388C20.0752 2.33334 20.6721 2.9303 20.6721 3.66668V8.33334C20.6721 9.06972 20.0752 9.66668 19.3388 9.66668H4.00545C3.26907 9.66668 2.67212 9.06972 2.67212 8.33334V3.66668Z" fill="#151619"/>
</svg>
