<svg width="25" height="12" viewBox="0 0 25 12" fill="none" xmlns="http://www.w3.org/2000/svg">
<path opacity="0.35" d="M3.33866 0.833328H20.0053C21.2019 0.833328 22.172 1.80338 22.172 2.99999V9C22.172 10.1966 21.2019 11.1667 20.0053 11.1667H3.33866C2.14205 11.1667 1.172 10.1966 1.172 8.99999V2.99999C1.172 1.80338 2.14205 0.833328 3.33866 0.833328Z" stroke="#151619"/>
<path opacity="0.4" d="M23.672 4V8C24.4767 7.66122 25 6.87313 25 6C25 5.12687 24.4767 4.33878 23.672 4" fill="#151619"/>
<path d="M2.672 3.66666C2.672 2.93028 3.26895 2.33333 4.00533 2.33333H19.3387C20.075 2.33333 20.672 2.93028 20.672 3.66666V8.33333C20.672 9.06971 20.075 9.66666 19.3387 9.66666H4.00533C3.26895 9.66666 2.672 9.06971 2.672 8.33333V3.66666Z" fill="#151619"/>
</svg>
