<svg width="16" height="16" viewBox="0 0 16 16" fill="none" xmlns="http://www.w3.org/2000/svg">
<path d="M14.8939 8.71393L8.28772 15.3077C8.18762 15.4076 8.07922 15.4785 7.96252 15.5204C7.84581 15.5623 7.72079 15.5829 7.58746 15.5821C7.45413 15.5819 7.32915 15.5608 7.21252 15.5187C7.09589 15.4766 6.98763 15.4058 6.88772 15.3064L0.293925 8.70021C0.110764 8.5167 0.0153136 8.28728 0.00757237 8.01194C-0.000168807 7.7366 0.0957206 7.49936 0.295241 7.30021C0.478763 7.10038 0.708194 6.99626 0.983535 6.98786C1.25888 6.97945 1.49612 7.07567 1.69526 7.27653L6.59066 12.1811L6.60116 1.00613C6.60143 0.7228 6.69765 0.485225 6.88983 0.293405C7.08201 0.101586 7.31943 0.0061416 7.6021 0.00707398C7.88543 0.00734032 8.12301 0.103231 8.31483 0.294745C8.50665 0.486258 8.60209 0.724014 8.60116 1.00801L8.59066 12.183L13.4953 7.28762C13.6788 7.10446 13.9122 7.00868 14.1955 7.00028C14.4789 6.99188 14.7121 7.08809 14.8953 7.28893C15.0951 7.47245 15.1949 7.70588 15.1946 7.98921C15.1943 8.27255 15.0941 8.51412 14.8939 8.71393Z" fill="#333333"/>
</svg>
