<svg width="24" height="24" viewBox="0 0 24 24" fill="none" xmlns="http://www.w3.org/2000/svg">
<path d="M10.5939 23.5259L0.42378 13.0963C0.269687 12.9382 0.16028 12.7671 0.0955614 12.5827C0.0308423 12.3983 -0.00100321 12.2008 2.40772e-05 11.9901C2.40772e-05 11.7794 0.0323839 11.5819 0.0971029 11.3975C0.161822 11.2131 0.270714 11.0419 0.42378 10.8839L10.5939 0.454263C10.8764 0.164551 11.2298 0.0133737 11.6541 0.000731694C12.0783 -0.0119103 12.4441 0.139267 12.7512 0.454263C13.0594 0.743976 13.2202 1.10638 13.2335 1.54148C13.2469 1.97657 13.0989 2.35162 12.7897 2.66661L5.23918 10.4098H22.4591C22.8957 10.4098 23.2619 10.5615 23.5577 10.865C23.8536 11.1684 24.001 11.5434 24 11.9901C24 12.4378 23.8526 12.8134 23.5577 13.1168C23.2629 13.4202 22.8967 13.5714 22.4591 13.5703H5.23918L12.7897 21.3136C13.0722 21.6033 13.2202 21.972 13.2335 22.4198C13.2469 22.8675 13.0989 23.2362 12.7897 23.5259C12.5072 23.842 12.1477 24 11.7111 24C11.2745 24 10.9021 23.842 10.5939 23.5259Z" fill="#333333"/>
</svg>
