<svg width="24" height="14" viewBox="0 0 24 14" fill="none" xmlns="http://www.w3.org/2000/svg">
<path d="M12.0305 2.42418C13.9551 2.41888 15.8425 2.86381 17.4756 3.70782C19.1087 4.55183 20.4213 5.76067 21.2625 7.19535C19.5354 10.1188 16.008 11.9665 12.0305 11.9665C8.05294 11.9665 4.52552 10.1188 2.79844 7.19535C3.6396 5.76067 4.95219 4.55183 6.58532 3.70782C8.21846 2.86381 10.1058 2.41888 12.0305 2.42418ZM12.0305 0.689209C6.79689 0.689209 2.32742 3.38709 0.516602 7.19535C2.32742 11.0036 6.79689 13.7015 12.0305 13.7015C17.264 13.7015 21.7335 11.0036 23.5443 7.19535C21.7335 3.38709 17.264 0.689209 12.0305 0.689209ZM12.0305 5.02663C12.7245 5.02663 13.3901 5.25512 13.8808 5.66184C14.3715 6.06855 14.6472 6.62017 14.6472 7.19535C14.6472 7.77053 14.3715 8.32215 13.8808 8.72886C13.3901 9.13557 12.7245 9.36406 12.0305 9.36406C11.3364 9.36406 10.6709 9.13557 10.1801 8.72886C9.68937 8.32215 9.41367 7.77053 9.41367 7.19535C9.41367 6.62017 9.68937 6.06855 10.1801 5.66184C10.6709 5.25512 11.3364 5.02663 12.0305 5.02663ZM12.0305 3.29166C9.43461 3.29166 7.32024 5.04398 7.32024 7.19535C7.32024 9.34671 9.43461 11.099 12.0305 11.099C14.6263 11.099 16.7407 9.34671 16.7407 7.19535C16.7407 5.04398 14.6263 3.29166 12.0305 3.29166Z" fill="#A7A5A5"/>
</svg>
