<svg width="20" height="20" viewBox="0 0 20 20" fill="none" xmlns="http://www.w3.org/2000/svg">
<path d="M2.08007 2L8.56207 10.101C8.84581 10.4558 9.00029 10.8967 9.00007 11.351V18L11.0001 16.5V11.35C11.0001 10.896 11.1546 10.4556 11.4381 10.101L17.9201 2H2.08107H2.08007ZM2.08007 0H17.9201C18.2969 4.70007e-05 18.666 0.106524 18.9849 0.307166C19.3038 0.507808 19.5595 0.794454 19.7227 1.13409C19.8858 1.47372 19.9497 1.85253 19.9069 2.22687C19.8642 2.60122 19.7166 2.95588 19.4811 3.25L13.0001 11.35V16.5C13.0001 16.8105 12.9278 17.1167 12.7889 17.3944C12.6501 17.6721 12.4485 17.9137 12.2001 18.1L10.2001 19.6C9.90293 19.8229 9.54961 19.9586 9.17968 19.9919C8.80976 20.0253 8.43786 19.955 8.10565 19.7889C7.77343 19.6227 7.49404 19.3674 7.29877 19.0515C7.1035 18.7355 7.00007 18.3714 7.00007 18V11.35L0.519074 3.25C0.283588 2.95588 0.135973 2.60122 0.0932328 2.22687C0.0504926 1.85253 0.114365 1.47372 0.277494 1.13409C0.440622 0.794454 0.696371 0.507808 1.01528 0.307166C1.33419 0.106524 1.7033 4.70007e-05 2.08007 0Z" fill="#333333"/>
</svg>
