<svg width="13" height="17" viewBox="0 0 13 17" fill="none" xmlns="http://www.w3.org/2000/svg">
<path d="M1.625 17C1.17813 17 0.795439 16.8334 0.476939 16.5002C0.158439 16.167 -0.000540287 15.7669 1.37946e-06 15.3V1.7C1.37946e-06 1.2325 0.159251 0.832151 0.477751 0.498951C0.796251 0.165751 1.17867 -0.000565223 1.625 1.44312e-06H11.375C11.8219 1.44312e-06 12.2046 0.166601 12.5231 0.499801C12.8416 0.833001 13.0005 1.23307 13 1.7V15.3C13 15.7675 12.8407 16.1678 12.5222 16.501C12.2037 16.8342 11.8213 17.0006 11.375 17H1.625ZM5.6875 7.65L7.71875 6.375L9.75 7.65V1.7H5.6875V7.65Z" fill="white"/>
</svg>
