<svg width="16" height="16" viewBox="0 0 16 16" fill="none" xmlns="http://www.w3.org/2000/svg">
<path d="M6.95534 14.8875L0.355338 8.28746C0.255338 8.18746 0.184338 8.07913 0.142338 7.96246C0.100338 7.8458 0.0796712 7.7208 0.0803379 7.58746C0.0803379 7.45413 0.101338 7.32913 0.143338 7.21246C0.185338 7.0958 0.256005 6.98746 0.355338 6.88746L6.95534 0.287463C7.13867 0.104129 7.368 0.00846302 7.64334 0.000463024C7.91867 -0.00753698 8.156 0.0881294 8.35534 0.287463C8.55534 0.470796 8.65967 0.70013 8.66834 0.975463C8.677 1.2508 8.581 1.48813 8.38034 1.68746L3.48034 6.58746H14.6553C14.9387 6.58746 15.1763 6.68346 15.3683 6.87546C15.5603 7.06746 15.656 7.3048 15.6553 7.58746C15.6553 7.8708 15.5597 8.10846 15.3683 8.30046C15.177 8.49246 14.9393 8.58813 14.6553 8.58746H3.48034L8.38034 13.4875C8.56367 13.6708 8.65967 13.9041 8.66834 14.1875C8.677 14.4708 8.581 14.7041 8.38034 14.8875C8.197 15.0875 7.96367 15.1875 7.68034 15.1875C7.39701 15.1875 7.15534 15.0875 6.95534 14.8875Z" fill="#333333"/>
</svg>
