<svg width="16" height="16" viewBox="0 0 16 16" fill="none" xmlns="http://www.w3.org/2000/svg">
<path d="M6.87502 15.2937L0.275016 8.69371C0.175016 8.59371 0.104015 8.48538 0.0620154 8.36871C0.0200154 8.25205 -0.000651042 8.12705 1.56251e-05 7.99371C1.56251e-05 7.86038 0.0210158 7.73538 0.0630158 7.61871C0.105016 7.50205 0.175682 7.39371 0.275016 7.29371L6.87502 0.693713C7.05835 0.510379 7.28768 0.414713 7.56302 0.406713C7.83835 0.398713 8.07568 0.494379 8.27501 0.693713C8.47501 0.877046 8.57935 1.10638 8.58802 1.38171C8.59668 1.65705 8.50068 1.89438 8.30002 2.09371L3.40002 6.99371H14.575C14.8583 6.99371 15.096 7.08971 15.288 7.28171C15.48 7.47371 15.5757 7.71105 15.575 7.99371C15.575 8.27705 15.4793 8.51471 15.288 8.70671C15.0967 8.89871 14.859 8.99438 14.575 8.99371H3.40002L8.30002 13.8937C8.48335 14.077 8.57935 14.3104 8.58802 14.5937C8.59668 14.877 8.50068 15.1104 8.30002 15.2937C8.11668 15.4937 7.88335 15.5937 7.60002 15.5937C7.31668 15.5937 7.07502 15.4937 6.87502 15.2937Z" fill="#333333"/>
</svg>
