<svg width="16" height="16" viewBox="0 0 16 16" fill="none" xmlns="http://www.w3.org/2000/svg">
<path d="M6.95522 14.8875L0.355216 8.28746C0.255216 8.18746 0.184216 8.07913 0.142216 7.96246C0.100216 7.8458 0.0795492 7.7208 0.0802158 7.58746C0.0802158 7.45413 0.101216 7.32913 0.143216 7.21246C0.185216 7.0958 0.255883 6.98746 0.355216 6.88746L6.95522 0.287463C7.13855 0.104129 7.36788 0.00846302 7.64322 0.000463024C7.91855 -0.00753698 8.15588 0.0881294 8.35522 0.287463C8.55522 0.470796 8.65955 0.70013 8.66822 0.975463C8.67688 1.2508 8.58088 1.48813 8.38022 1.68746L3.48022 6.58746H14.6552C14.9385 6.58746 15.1762 6.68346 15.3682 6.87546C15.5602 7.06746 15.6559 7.3048 15.6552 7.58746C15.6552 7.8708 15.5595 8.10846 15.3682 8.30046C15.1769 8.49246 14.9392 8.58813 14.6552 8.58746H3.48022L8.38022 13.4875C8.56355 13.6708 8.65955 13.9041 8.66822 14.1875C8.67688 14.4708 8.58088 14.7041 8.38022 14.8875C8.19688 15.0875 7.96355 15.1875 7.68022 15.1875C7.39688 15.1875 7.15522 15.0875 6.95522 14.8875Z" fill="#333333"/>
</svg>
