<svg width="24" height="14" viewBox="0 0 24 14" fill="none" xmlns="http://www.w3.org/2000/svg">
<path d="M11.8751 2.26301C13.8013 2.2577 15.6902 2.70274 17.3246 3.54695C18.9591 4.39117 20.2727 5.60029 21.1145 7.03532C19.3861 9.95945 15.8558 11.8076 11.8751 11.8076C7.89443 11.8076 4.36418 9.95945 2.63572 7.03532C3.47755 5.60029 4.79119 4.39117 6.42563 3.54695C8.06007 2.70274 9.94896 2.2577 11.8751 2.26301ZM11.8751 0.527618C6.63737 0.527618 2.16432 3.22615 0.352051 7.03532C2.16432 10.8445 6.63737 13.543 11.8751 13.543C17.1129 13.543 21.5859 10.8445 23.3982 7.03532C21.5859 3.22615 17.1129 0.527618 11.8751 0.527618ZM11.8751 4.86609C12.5697 4.86609 13.2358 5.09463 13.727 5.50144C14.2181 5.90825 14.494 6.46 14.494 7.03532C14.494 7.61064 14.2181 8.16239 13.727 8.5692C13.2358 8.97601 12.5697 9.20455 11.8751 9.20455C11.1806 9.20455 10.5144 8.97601 10.0233 8.5692C9.53216 8.16239 9.25625 7.61064 9.25625 7.03532C9.25625 6.46 9.53216 5.90825 10.0233 5.50144C10.5144 5.09463 11.1806 4.86609 11.8751 4.86609ZM11.8751 3.1307C9.2772 3.1307 7.16114 4.88344 7.16114 7.03532C7.16114 9.1872 9.2772 10.9399 11.8751 10.9399C14.4731 10.9399 16.5891 9.1872 16.5891 7.03532C16.5891 4.88344 14.4731 3.1307 11.8751 3.1307Z" fill="#A7A5A5"/>
</svg>
