<svg width="16" height="12" viewBox="0 0 16 12" fill="none" xmlns="http://www.w3.org/2000/svg">
<path fill-rule="evenodd" clip-rule="evenodd" d="M7.65174 2.79454C9.86764 2.79464 11.9988 3.64607 13.6047 5.17287C13.7257 5.29075 13.919 5.28926 14.0381 5.16954L15.1941 4.00287C15.2544 3.94215 15.288 3.8599 15.2875 3.77432C15.287 3.68874 15.2524 3.60689 15.1914 3.54687C10.9763 -0.492675 4.32651 -0.492675 0.111409 3.54687C0.0503506 3.60684 0.0157067 3.68867 0.0151437 3.77425C0.0145807 3.85983 0.0481449 3.94211 0.108409 4.00287L1.26474 5.16954C1.38377 5.28944 1.57722 5.29093 1.69808 5.17287C3.30423 3.64597 5.43563 2.79453 7.65174 2.79454ZM7.65174 6.59021C8.86923 6.59013 10.0433 7.04266 10.9457 7.85987C11.0678 7.97585 11.2601 7.97334 11.3791 7.85421L12.5337 6.68754C12.5945 6.62634 12.6283 6.54333 12.6274 6.45706C12.6265 6.3708 12.5911 6.28848 12.5291 6.22854C9.78088 3.67216 5.52494 3.67216 2.77674 6.22854C2.71466 6.28848 2.67925 6.37084 2.67843 6.45713C2.67762 6.54342 2.71147 6.62643 2.77241 6.68754L3.92674 7.85421C4.04573 7.97334 4.23801 7.97585 4.36008 7.85987C5.26195 7.0432 6.43506 6.59071 7.65174 6.59021ZM9.96485 9.14402C9.96662 9.23053 9.93261 9.31393 9.87086 9.37454L7.87352 11.3902C7.81497 11.4494 7.73515 11.4828 7.65186 11.4828C7.56857 11.4828 7.48874 11.4494 7.43019 11.3902L5.43252 9.37454C5.37081 9.31389 5.33686 9.23046 5.33869 9.14395C5.34052 9.05744 5.37797 8.97553 5.44219 8.91754C6.71776 7.83865 8.58595 7.83865 9.86152 8.91754C9.9257 8.97557 9.96308 9.05752 9.96485 9.14402Z" fill="#151619"/>
</svg>
