<svg width="16" height="12" viewBox="0 0 16 12" fill="none" xmlns="http://www.w3.org/2000/svg">
<path fill-rule="evenodd" clip-rule="evenodd" d="M8.03626 2.79454C10.2522 2.79464 12.3833 3.64607 13.9893 5.17287C14.1102 5.29075 14.3035 5.28926 14.4226 5.16954L15.5786 4.00287C15.6389 3.94215 15.6725 3.8599 15.672 3.77432C15.6715 3.68874 15.6369 3.60689 15.5759 3.54687C11.3608 -0.492675 4.71103 -0.492675 0.495931 3.54687C0.434872 3.60684 0.400228 3.68867 0.399665 3.77425C0.399102 3.85983 0.432666 3.94211 0.492931 4.00287L1.64926 5.16954C1.76829 5.28944 1.96174 5.29093 2.0826 5.17287C3.68875 3.64597 5.82015 2.79453 8.03626 2.79454ZM8.03626 6.59021C9.25375 6.59013 10.4278 7.04266 11.3303 7.85987C11.4523 7.97585 11.6446 7.97334 11.7636 7.85421L12.9183 6.68754C12.9791 6.62634 13.0128 6.54333 13.0119 6.45706C13.0111 6.3708 12.9756 6.28848 12.9136 6.22854C10.1654 3.67216 5.90946 3.67216 3.16126 6.22854C3.09919 6.28848 3.06377 6.37084 3.06295 6.45713C3.06214 6.54342 3.096 6.62643 3.15693 6.68754L4.31126 7.85421C4.43025 7.97334 4.62253 7.97585 4.7446 7.85987C5.64647 7.0432 6.81958 6.59071 8.03626 6.59021ZM10.3494 9.14402C10.3511 9.23053 10.3171 9.31393 10.2554 9.37454L8.25804 11.3902C8.19949 11.4494 8.11967 11.4828 8.03638 11.4828C7.95309 11.4828 7.87326 11.4494 7.81471 11.3902L5.81704 9.37454C5.75533 9.31389 5.72139 9.23046 5.72321 9.14395C5.72504 9.05744 5.76249 8.97553 5.82671 8.91754C7.10228 7.83865 8.97047 7.83865 10.246 8.91754C10.3102 8.97557 10.3476 9.05752 10.3494 9.14402Z" fill="#151619"/>
</svg>
