<svg width="16" height="12" viewBox="0 0 16 12" fill="none" xmlns="http://www.w3.org/2000/svg">
<path fill-rule="evenodd" clip-rule="evenodd" d="M8.0362 2.79454C10.2521 2.79464 12.3833 3.64607 13.9892 5.17287C14.1101 5.29075 14.3034 5.28926 14.4225 5.16954L15.5785 4.00287C15.6388 3.94215 15.6725 3.8599 15.672 3.77432C15.6715 3.68874 15.6369 3.60689 15.5759 3.54687C11.3608 -0.492675 4.71097 -0.492675 0.49587 3.54687C0.434811 3.60684 0.400167 3.68867 0.399604 3.77425C0.399041 3.85983 0.432605 3.94211 0.49287 4.00287L1.6492 5.16954C1.76823 5.28944 1.96168 5.29093 2.08254 5.17287C3.68869 3.64597 5.82009 2.79453 8.0362 2.79454ZM8.0362 6.59021C9.25369 6.59013 10.4277 7.04266 11.3302 7.85987C11.4523 7.97585 11.6445 7.97334 11.7635 7.85421L12.9182 6.68754C12.979 6.62634 13.0128 6.54333 13.0119 6.45706C13.011 6.3708 12.9756 6.28848 12.9135 6.22854C10.1653 3.67216 5.9094 3.67216 3.1612 6.22854C3.09913 6.28848 3.06371 6.37084 3.06289 6.45713C3.06208 6.54342 3.09593 6.62643 3.15687 6.68754L4.3112 7.85421C4.43019 7.97334 4.62247 7.97585 4.74454 7.85987C5.64641 7.0432 6.81952 6.59071 8.0362 6.59021ZM10.3493 9.14402C10.3511 9.23053 10.3171 9.31393 10.2553 9.37454L8.25798 11.3902C8.19943 11.4494 8.11961 11.4828 8.03632 11.4828C7.95303 11.4828 7.8732 11.4494 7.81465 11.3902L5.81698 9.37454C5.75527 9.31389 5.72132 9.23046 5.72315 9.14395C5.72498 9.05744 5.76243 8.97553 5.82665 8.91754C7.10222 7.83865 8.97041 7.83865 10.246 8.91754C10.3102 8.97557 10.3475 9.05752 10.3493 9.14402Z" fill="#151619"/>
</svg>
