<svg width="16" height="12" viewBox="0 0 16 12" fill="none" xmlns="http://www.w3.org/2000/svg">
<path fill-rule="evenodd" clip-rule="evenodd" d="M8.01359 2.79454C10.2295 2.79464 12.3606 3.64607 13.9666 5.17287C14.0875 5.29075 14.2808 5.28926 14.3999 5.16954L15.5559 4.00287C15.6162 3.94215 15.6499 3.8599 15.6494 3.77432C15.6489 3.68874 15.6143 3.60689 15.5533 3.54687C11.3382 -0.492675 4.68835 -0.492675 0.473256 3.54687C0.412198 3.60684 0.377554 3.68867 0.376991 3.77425C0.376428 3.85983 0.409992 3.94211 0.470256 4.00287L1.62659 5.16954C1.74562 5.28944 1.93906 5.29093 2.05992 5.17287C3.66607 3.64597 5.79748 2.79453 8.01359 2.79454ZM8.01359 6.59021C9.23108 6.59013 10.4051 7.04266 11.3076 7.85987C11.4297 7.97585 11.6219 7.97334 11.7409 7.85421L12.8956 6.68754C12.9564 6.62634 12.9901 6.54333 12.9893 6.45706C12.9884 6.3708 12.953 6.28848 12.8909 6.22854C10.1427 3.67216 5.88679 3.67216 3.13859 6.22854C3.07651 6.28848 3.04109 6.37084 3.04028 6.45713C3.03946 6.54342 3.07332 6.62643 3.13426 6.68754L4.28859 7.85421C4.40758 7.97334 4.59986 7.97585 4.72192 7.85987C5.6238 7.0432 6.7969 6.59071 8.01359 6.59021ZM10.3267 9.14402C10.3285 9.23053 10.2945 9.31393 10.2327 9.37454L8.23537 11.3902C8.17682 11.4494 8.09699 11.4828 8.0137 11.4828C7.93041 11.4828 7.85059 11.4494 7.79204 11.3902L5.79437 9.37454C5.73266 9.31389 5.69871 9.23046 5.70054 9.14395C5.70237 9.05744 5.73982 8.97553 5.80404 8.91754C7.07961 7.83865 8.9478 7.83865 10.2234 8.91754C10.2875 8.97557 10.3249 9.05752 10.3267 9.14402Z" fill="#151619"/>
</svg>
