<svg width="17" height="12" viewBox="0 0 17 12" fill="none" xmlns="http://www.w3.org/2000/svg">
<path fill-rule="evenodd" clip-rule="evenodd" d="M8.51112 2.79454C10.727 2.79464 12.8582 3.64607 14.4641 5.17287C14.585 5.29075 14.7783 5.28926 14.8975 5.16954L16.0535 4.00287C16.1138 3.94215 16.1474 3.8599 16.1469 3.77432C16.1464 3.68874 16.1118 3.60689 16.0508 3.54687C11.8357 -0.492675 5.18588 -0.492675 0.970784 3.54687C0.909726 3.60684 0.875082 3.68867 0.874519 3.77425C0.873956 3.85983 0.90752 3.94211 0.967784 4.00287L2.12412 5.16954C2.24315 5.28944 2.43659 5.29093 2.55745 5.17287C4.1636 3.64597 6.29501 2.79453 8.51112 2.79454ZM8.51112 6.59021C9.72861 6.59013 10.9026 7.04266 11.8051 7.85987C11.9272 7.97585 12.1195 7.97334 12.2385 7.85421L13.3931 6.68754C13.4539 6.62634 13.4877 6.54333 13.4868 6.45706C13.4859 6.3708 13.4505 6.28848 13.3885 6.22854C10.6403 3.67216 6.38432 3.67216 3.63612 6.22854C3.57404 6.28848 3.53862 6.37084 3.53781 6.45713C3.53699 6.54342 3.57085 6.62643 3.63178 6.68754L4.78612 7.85421C4.90511 7.97334 5.09739 7.97585 5.21945 7.85987C6.12132 7.0432 7.29443 6.59071 8.51112 6.59021ZM10.8242 9.14402C10.826 9.23053 10.792 9.31393 10.7302 9.37454L8.7329 11.3902C8.67435 11.4494 8.59452 11.4828 8.51123 11.4828C8.42794 11.4828 8.34811 11.4494 8.28957 11.3902L6.2919 9.37454C6.23019 9.31389 6.19624 9.23046 6.19807 9.14395C6.1999 9.05744 6.23734 8.97553 6.30157 8.91754C7.57714 7.83865 9.44533 7.83865 10.7209 8.91754C10.7851 8.97557 10.8225 9.05752 10.8242 9.14402Z" fill="#151619"/>
</svg>
