<svg width="16" height="12" viewBox="0 0 16 12" fill="none" xmlns="http://www.w3.org/2000/svg">
<path fill-rule="evenodd" clip-rule="evenodd" d="M7.94575 2.79454C10.1616 2.79464 12.2928 3.64607 13.8987 5.17287C14.0197 5.29075 14.213 5.28926 14.3321 5.16954L15.4881 4.00287C15.5484 3.94215 15.582 3.8599 15.5815 3.77432C15.581 3.68874 15.5464 3.60689 15.4854 3.54687C11.2703 -0.492675 4.62051 -0.492675 0.405416 3.54687C0.344357 3.60684 0.309713 3.68867 0.30915 3.77425C0.308587 3.85983 0.342151 3.94211 0.402416 4.00287L1.55875 5.16954C1.67778 5.28944 1.87122 5.29093 1.99208 5.17287C3.59823 3.64597 5.72964 2.79453 7.94575 2.79454ZM7.94575 6.59021C9.16324 6.59013 10.3373 7.04266 11.2397 7.85987C11.3618 7.97585 11.5541 7.97334 11.6731 7.85421L12.8277 6.68754C12.8886 6.62634 12.9223 6.54333 12.9214 6.45706C12.9205 6.3708 12.8851 6.28848 12.8231 6.22854C10.0749 3.67216 5.81895 3.67216 3.07075 6.22854C3.00867 6.28848 2.97325 6.37084 2.97244 6.45713C2.97162 6.54342 3.00548 6.62643 3.06642 6.68754L4.22075 7.85421C4.33974 7.97334 4.53202 7.97585 4.65408 7.85987C5.55595 7.0432 6.72906 6.59071 7.94575 6.59021ZM10.2589 9.14402C10.2606 9.23053 10.2266 9.31393 10.1649 9.37454L8.16753 11.3902C8.10898 11.4494 8.02915 11.4828 7.94586 11.4828C7.86257 11.4828 7.78275 11.4494 7.7242 11.3902L5.72653 9.37454C5.66482 9.31389 5.63087 9.23046 5.6327 9.14395C5.63453 9.05744 5.67198 8.97553 5.7362 8.91754C7.01177 7.83865 8.87996 7.83865 10.1555 8.91754C10.2197 8.97557 10.2571 9.05752 10.2589 9.14402Z" fill="#151619"/>
</svg>
